<svg width="396" height="340" viewBox="0 0 396 340" fill="none" xmlns="http://www.w3.org/2000/svg">
<path d="M371.999 56.1465L389.999 249.54L371.999 56.1465Z" fill="#373435"/>
<path d="M371.999 56.1465L389.999 249.54L371.999 56.1465Z" fill="#373435"/>
<path d="M0 0L371.999 56.1466L0 0Z" fill="#373435"/>
<path d="M0 0L371.999 56.1466L0 0Z" fill="#373435"/>
<path d="M9 154.964L20.8794 339.999L92.9999 322.984L90.0521 280.101L53.7084 285.977L47.9262 197.771L83.9927 194.654L81.2842 152.844L9 154.964Z" fill="black"/>
<path d="M0 0L8.06925 124.757L53.9999 124.77L52.2452 95.2873L28.6266 94.4615L25.1812 33.8699L47.8263 36.1408L46.0203 6.54173L0 0Z" fill="black"/>
<path d="M102.037 321.284L101.999 150.829L148.066 149.725L170.999 304.11L147.791 309.98L140.288 268.901L127.083 271.47L127.096 314.501L102.037 321.284Z" fill="black"/>
<path d="M172.726 302.568L161.999 151.525L208.375 149.725L209.999 184.016L186.46 185.451L188.654 210.147L207.684 208.346L209.769 231.719L192.726 235.006L196.957 296.095L172.726 302.568Z" fill="black"/>
<path d="M223.588 290.091L257.999 281.54L255.415 247.299L238.011 250.847L236.689 227.633L249.429 225.451L247.374 201.713L234.285 203.219L232.194 181.587L250.415 179.711L246.869 146.605L212.999 148.188L223.588 290.091Z" fill="black"/>
<path d="M166.277 124.415L210 124.771L208.068 101.005L186.529 100.292L185.192 82.7407L198.009 83.2502L196.697 66.2214L183.978 65.1388L182.593 51.3069L204.788 53.8543L202.553 30.1134L159 24.9551L166.277 124.415Z" fill="black"/>
<path d="M257.998 147.145L268.643 280.733L284.998 276.43L274.742 146.605L257.998 147.145Z" fill="black"/>
<path d="M292.075 274.495L282 147.992L301.492 147.513L316.964 195.323L313.139 146.719L331.657 146.605L342 262.23L324.347 266.503L308.242 219.588L312.676 269.327L292.075 274.495Z" fill="black"/>
<path d="M345.782 262.016L344.999 143.729L375.654 143.484L395.999 249.868L379.184 253.69L373.197 217.427L363.103 219.215L364.549 257.075L345.782 262.016Z" fill="black"/>
<path d="M267.009 28.0723L257.998 96.1486H272.272L264.241 168.439L287.998 73.3388L275.524 73.2883L283.343 30.4189L267.009 28.0723Z" fill="black"/>
<path d="M54.001 9.35938L61.0123 123.812L111.001 124.772L104.214 16.5458L54.001 9.35938Z" fill="black"/>
<path d="M110.999 15.5957L118.011 124.77H161.999L161.586 99.0105L139.92 97.9297L134.303 18.5808L110.999 15.5957Z" fill="black"/>
<path d="M228.532 56.1057L214.814 54.473L212.999 31.1934L256.496 37.6606L257.999 59.4605L244.762 58.2105L248.862 124.771L232.992 124.707L228.532 56.1057Z" fill="black"/>
<path d="M329.999 49.9082L337.452 124.77H377.999L370.708 55.6477L329.999 49.9082Z" fill="black"/>
<path d="M287.998 43.668L302.333 124.406L323.998 124.769L326.998 49.0346L312.815 46.6578L311.391 97.9727L304.994 45.8196L287.998 43.668Z" fill="black"/>
<path d="M71.999 37.4277L76.1935 96.5751L92.999 96.6936L89.5746 39.2312L71.999 37.4277Z" fill="white"/>
<path d="M350.999 68.6211L354.48 106.052H362.999L359.529 70.0578L350.999 68.6211Z" fill="white"/>
<path d="M125.257 240.183L123 191.549L132.16 190.275L138 238.746L125.257 240.183Z" fill="white"/>
<path d="M360.243 199.632L360 171.791L365.344 171.559L369 198.579L360.243 199.632Z" fill="white"/>
</svg>
