<svg width="79" height="65" viewBox="0 0 79 65" fill="none" xmlns="http://www.w3.org/2000/svg">
<path d="M73.7867 10.9121L77.3329 47.5561L73.7867 10.9121Z" fill="#373435"/>
<path d="M73.7867 10.9121L77.3329 47.5561L73.7867 10.9121Z" fill="#373435"/>
<path d="M0.498901 0.273438L73.7868 10.912L0.498901 0.273438Z" fill="#373435"/>
<path d="M0.498901 0.273438L73.7868 10.912L0.498901 0.273438Z" fill="#373435"/>
<path d="M2.27197 29.6362L4.61234 64.6963L18.8209 61.4722L18.2401 53.3468L11.08 54.4602L9.94085 37.7471L17.0463 37.1565L16.5127 29.2344L2.27197 29.6362Z" fill="white"/>
<path d="M0.498901 0.273438L2.08863 23.9123L11.1375 23.9147L10.7918 18.3283L6.13865 18.1719L5.45987 6.69105L9.9212 7.12134L9.5654 1.51295L0.498901 0.273438Z" fill="white"/>
<path d="M20.6011 61.1493L20.5938 28.8519L29.6694 28.6426L34.1875 57.8952L29.6152 59.0075L28.1371 51.224L25.5356 51.7108L25.538 59.8642L20.6011 61.1493Z" fill="white"/>
<path d="M34.5279 57.6031L32.4146 28.9838L41.5511 28.6426L41.8711 35.14L37.2335 35.412L37.6658 40.0913L41.4149 39.75L41.8257 44.1787L38.4681 44.8015L39.3016 56.3766L34.5279 57.6031Z" fill="white"/>
<path d="M44.5482 55.2402L51.3275 53.62L50.8184 47.1321L47.3897 47.8043L47.1292 43.4057L49.6392 42.9922L49.2343 38.4944L46.6556 38.7797L46.2436 34.6809L49.8334 34.3255L49.1348 28.0527L42.462 28.3526L44.5482 55.2402Z" fill="white"/>
<path d="M33.2574 23.8474L41.8713 23.915L41.4907 19.4117L37.2472 19.2766L36.9839 15.9511L39.509 16.0476L39.2505 12.821L36.7446 12.6159L36.4717 9.99506L40.8445 10.4777L40.4041 5.97934L31.8237 5.00195L33.2574 23.8474Z" fill="white"/>
<path d="M51.3274 28.155L53.4245 53.4671L56.6467 52.6516L54.6261 28.0527L51.3274 28.155Z" fill="white"/>
<path d="M58.0408 52.285L56.0559 28.3155L59.8961 28.2247L62.9443 37.2837L62.1906 28.0742L65.8388 28.0527L67.8765 49.9611L64.3988 50.7708L61.2258 41.8813L62.0994 51.3058L58.0408 52.285Z" fill="white"/>
<path d="M68.6218 49.9201L68.4675 27.5073L74.507 27.4609L78.5151 47.6184L75.2023 48.3426L74.0229 41.4714L72.0342 41.8103L72.319 48.9838L68.6218 49.9201Z" fill="white"/>
<path d="M53.1027 5.5918L51.3274 18.4908H54.1395L52.5574 32.1882L57.2377 14.1688L54.7802 14.1593L56.3207 6.03643L53.1027 5.5918Z" fill="white"/>
<path d="M11.1377 2.04688L12.519 23.7332L22.3673 23.915L21.0301 3.40855L11.1377 2.04688Z" fill="white"/>
<path d="M22.3669 3.22852L23.7484 23.9146H32.4145L32.3332 19.0338L28.0647 18.829L26.9581 3.79412L22.3669 3.22852Z" fill="white"/>
<path d="M45.5222 10.9039L42.8197 10.5946L42.462 6.18359L51.0314 7.409L51.3275 11.5396L48.7197 11.3028L49.5274 23.9145L46.4009 23.9025L45.5222 10.9039Z" fill="white"/>
<path d="M65.5122 9.73047L66.9804 23.9152H74.9687L73.5323 10.818L65.5122 9.73047Z" fill="white"/>
<path d="M57.2375 8.54688L60.0616 23.845L64.3299 23.9137L64.921 9.56374L62.1268 9.11338L61.8462 18.8365L60.586 8.95457L57.2375 8.54688Z" fill="white"/>
<path d="M14.6835 7.36523L15.5098 18.5724L18.8207 18.5948L18.1461 7.70696L14.6835 7.36523Z" fill="#19203B"/>
<path d="M69.6497 13.2754L70.3354 20.3678H72.0138L71.3302 13.5476L69.6497 13.2754Z" fill="#19203B"/>
<path d="M25.176 45.7827L24.7313 36.5675L26.536 36.3262L27.6865 45.5102L25.176 45.7827Z" fill="#19203B"/>
<path d="M71.4706 38.0986L71.4227 32.8234L72.4755 32.7793L73.1958 37.8992L71.4706 38.0986Z" fill="#19203B"/>
</svg>
