<svg width="142" height="64" viewBox="0 0 142 64" fill="none" xmlns="http://www.w3.org/2000/svg">
<path fill-rule="evenodd" clip-rule="evenodd" d="M63.188 14.3809L83.8412 48.9034H42.5402L63.188 14.3809Z" fill="#FDDB00"/>
<path fill-rule="evenodd" clip-rule="evenodd" d="M26.7144 14.3809L49.1019 48.9034H26.7144V14.3809Z" fill="#01D101"/>
<path fill-rule="evenodd" clip-rule="evenodd" d="M45.6863 43.6328L42.5388 48.8976H49.1021L45.6863 43.6328Z" fill="#4E4E4E"/>
<path fill-rule="evenodd" clip-rule="evenodd" d="M63.187 36.2461C70.1592 36.2461 75.8199 41.9174 75.8199 48.9025H50.5541C50.5541 41.9174 56.2148 36.2461 63.187 36.2461Z" fill="#193DFF"/>
<path fill-rule="evenodd" clip-rule="evenodd" d="M40.2562 14.3809C45.9546 14.3809 50.5801 19.0149 50.5801 24.7239C50.5801 30.4329 45.9546 35.067 40.2562 35.067L29.8721 33.0433L26.7136 14.3809H40.2562Z" fill="#193DFF"/>
<path fill-rule="evenodd" clip-rule="evenodd" d="M129.938 37.2617H141.89V48.9006H129.938V37.2617Z" fill="#193DFF"/>
<path fill-rule="evenodd" clip-rule="evenodd" d="M117.992 37.2617H129.944V48.9006H117.992V37.2617Z" fill="#4E4E4E"/>
<path fill-rule="evenodd" clip-rule="evenodd" d="M117.992 14.4336H129.944V37.2609H117.992V14.4336Z" fill="#FDDB00"/>
<path fill-rule="evenodd" clip-rule="evenodd" d="M103.996 14.4434H115.948V48.9096H103.996V14.4434Z" fill="#01D101"/>
<path fill-rule="evenodd" clip-rule="evenodd" d="M86.232 46.7595C83.5224 44.7578 81.7653 41.5387 81.7653 37.9082C81.7653 34.2777 83.5224 31.0585 86.232 29.0568V26.918H92.7351C98.7893 26.918 103.705 31.8427 103.705 37.9082C103.705 43.9736 98.7893 48.8983 92.7351 48.8983H86.232V46.7595Z" fill="#FDDB00"/>
<path fill-rule="evenodd" clip-rule="evenodd" d="M89.9215 24.7733L89.5 26.9176V29.3745H85.2522C81.1248 29.3745 77.7693 26.0127 77.7693 21.8777C77.7693 17.7426 81.1248 14.3809 85.2522 14.3809H89.5L89.9215 16.5252V24.7733Z" fill="#01D101"/>
<path fill-rule="evenodd" clip-rule="evenodd" d="M89.5009 14.3789H101.96V26.9186H89.5009V14.3789Z" fill="#193DFF"/>
<path fill-rule="evenodd" clip-rule="evenodd" d="M77.7675 29.373H89.4994V48.9024H77.7675V29.373Z" fill="#FF0000"/>
<path fill-rule="evenodd" clip-rule="evenodd" d="M16.3896 28.2129C22.088 28.2129 26.7136 32.847 26.7136 38.556C26.7136 44.2649 22.088 48.899 16.3896 48.899H0.515137V28.2129H16.3896Z" fill="#FF0000"/>
<path fill-rule="evenodd" clip-rule="evenodd" d="M15.2951 14.3809C19.105 14.3809 22.1978 17.4794 22.1978 21.2963C22.1978 25.1133 19.105 28.2118 15.2951 28.2118H7.00757L11.967 14.3809H15.2951Z" fill="#193DFF"/>
<path d="M15.3194 3.46532V4.8725H17.0904C16.9377 5.30077 16.4797 5.63727 15.7774 5.63727C14.7698 5.63727 14.098 4.90309 14.098 3.92418C14.098 2.91469 14.8003 2.14993 15.7468 2.14993C16.3575 2.14993 16.9071 2.45584 17.1819 2.97588L18.7087 2.05816C18.098 1.04866 16.9682 0.40625 15.7774 0.40625C13.8537 0.40625 12.327 1.93579 12.327 3.8936C12.327 5.82082 13.8537 7.35035 15.8079 7.35035C17.64 7.35035 19.014 6.00435 19.014 3.95478V3.43474L15.3194 3.46532Z" fill="white"/>
<path d="M25.09 7.3803C27.0137 7.3803 28.5404 5.85076 28.5404 3.92355C28.5404 1.99633 27.0137 0.466797 25.09 0.466797C23.1664 0.466797 21.6091 1.99633 21.6091 3.92355C21.6091 5.85076 23.1358 7.3803 25.09 7.3803ZM25.09 5.54486C24.2045 5.54486 23.5328 4.84127 23.5328 3.92355C23.5328 2.97523 24.2045 2.30224 25.09 2.30224C25.945 2.30224 26.6167 3.00582 26.6167 3.92355C26.6167 4.84127 25.945 5.54486 25.09 5.54486Z" fill="white"/>
<path d="M35.1665 0.621094L33.6093 4.68966L32.0826 0.621094H30.1589L32.7238 7.22869H34.4948L37.0902 0.621094H35.1665Z" fill="white"/>
<path d="M44.0825 2.21116V0.589844H39.3497V7.19744H44.0825V5.57614H41.1512V4.59723H43.1054V3.22065H41.1512V2.24174L44.0825 2.21116Z" fill="white"/>
<path d="M50.5859 7.22869H52.5706L51.105 4.68966C51.8073 4.32257 52.2653 3.61899 52.2653 2.76244C52.2653 1.53882 51.2882 0.621094 49.9752 0.621094H46.7692V7.22869H48.5401V4.93439H49.2729L50.5859 7.22869ZM48.5401 2.18122H49.792C50.2195 2.18122 50.4638 2.48713 50.4638 2.79304C50.4638 3.09894 50.189 3.40485 49.792 3.40485H48.5401V2.18122Z" fill="white"/>
<path d="M59.1357 0.621094V4.10843L56.4792 0.621094H54.983V7.22869H56.754V3.74135L59.4105 7.22869H60.9066V0.621094H59.1357Z" fill="white"/>
<path d="M66.8913 7.3803C68.8149 7.3803 70.3416 5.85076 70.3416 3.92355C70.3416 1.99633 68.8149 0.466797 66.8913 0.466797C64.9676 0.466797 63.4104 1.99633 63.4104 3.92355C63.4104 5.85076 64.9371 7.3803 66.8913 7.3803ZM66.8913 5.54486C66.0058 5.54486 65.334 4.84127 65.334 3.92355C65.334 2.97523 66.0058 2.30224 66.8913 2.30224C67.7462 2.30224 68.418 3.00582 68.418 3.92355C68.418 4.84127 67.7462 5.54486 66.8913 5.54486Z" fill="white"/>
<path d="M81.9139 2.18057V0.589844H77.1812V7.19744H78.9827V4.78078H80.9368V3.28183H78.9827V2.14997H81.9139V2.18057Z" fill="white"/>
<path d="M89.2425 2.21116V0.589844H84.5098V7.19744H89.2425V5.57614H86.3113V4.59723H88.2655V3.22065H86.3113V2.24174L89.2425 2.21116Z" fill="white"/>
<path d="M94.6468 0.621094H91.9598V7.22869H94.6468C96.6621 7.22869 98.1582 5.82151 98.1582 3.92489C98.1582 2.02826 96.6621 0.621094 94.6468 0.621094ZM94.5552 5.51561H93.7613V2.33418H94.5552C95.5934 2.33418 96.3262 2.94599 96.3262 3.92489C96.3262 4.8732 95.5934 5.51561 94.5552 5.51561Z" fill="white"/>
<path d="M105.425 2.21116V0.589844H100.692V7.19744H105.425V5.57614H102.494V4.59723H104.448V3.22065H102.494V2.24174L105.425 2.21116Z" fill="white"/>
<path d="M111.929 7.22869H113.914L112.448 4.68966C113.15 4.32257 113.608 3.61899 113.608 2.76244C113.608 1.53882 112.631 0.621094 111.318 0.621094H108.112V7.22869H109.883V4.93439H110.616L111.929 7.22869ZM109.883 2.18122H111.135C111.562 2.18122 111.807 2.48713 111.807 2.79304C111.807 3.09894 111.532 3.40485 111.135 3.40485H109.883V2.18122Z" fill="white"/>
<path d="M121.211 7.22869H123.043L120.265 0.621094H118.585L115.837 7.22869H117.7L118.158 6.09683H120.784L121.211 7.22869ZM118.768 4.50612L119.44 2.88481L120.112 4.50612H118.768Z" fill="white"/>
<path d="M127.196 5.51495V0.589844H125.333V7.19744H129.975V5.48436H127.196V5.51495Z" fill="white"/>
<path fill-rule="evenodd" clip-rule="evenodd" d="M77.7693 38.752L83.8399 48.9031H77.7693V38.752Z" fill="#4E4E4E"/>
<path fill-rule="evenodd" clip-rule="evenodd" d="M14.7125 61.552C14.9825 61.552 15.2074 61.5069 15.3874 61.3942C15.5673 61.2815 15.7023 61.1463 15.8148 60.9885C15.9272 60.8308 15.9947 60.6279 16.0397 60.4026C16.0847 60.1772 16.1072 59.9518 16.1072 59.7265V57.1348H16.917V59.7265C16.917 60.0645 16.872 60.4026 16.8045 60.7181C16.7146 61.0336 16.6021 61.304 16.4221 61.5294C16.2422 61.7548 16.0172 61.9351 15.7473 62.0703C15.4773 62.2055 15.1399 62.2731 14.735 62.2731C14.3301 62.2731 13.9927 62.2055 13.7003 62.0703C13.4303 61.9351 13.2054 61.7322 13.0254 61.5069C12.8454 61.2815 12.733 60.9885 12.643 60.6956C12.5755 60.38 12.5305 60.0645 12.5305 59.749V57.1573H13.3403V59.749C13.3403 59.9744 13.3628 60.1998 13.4078 60.4251C13.4528 60.6505 13.5203 60.8308 13.6328 61.0111C13.7452 61.1914 13.8802 61.3266 14.0602 61.4167C14.2401 61.5069 14.4426 61.552 14.7125 61.552Z" fill="white"/>
<path fill-rule="evenodd" clip-rule="evenodd" d="M20.3138 58.6682V62.2515H19.504V57.1582H20.1339L23.0357 60.8317V57.1582H23.8455V62.2515H23.1707L20.3138 58.6682Z" fill="white"/>
<path fill-rule="evenodd" clip-rule="evenodd" d="M26.5227 57.1582H27.3325V62.2515H26.5227V57.1582Z" fill="white"/>
<path fill-rule="evenodd" clip-rule="evenodd" d="M31.494 57.1573H32.1914L34.1934 62.2506H33.3386L32.7987 60.8759H30.8417L30.3018 62.2506H29.4695L31.494 57.1573ZM32.6413 60.2674L31.8314 58.0813L30.9766 60.2674H32.6413ZM32.2813 56.5038C32.1689 56.5038 32.0789 56.4812 31.9889 56.4587C31.8989 56.4362 31.8314 56.3911 31.764 56.346C31.6965 56.3009 31.629 56.2784 31.5615 56.2333C31.494 56.2108 31.4265 56.1883 31.3366 56.1883C31.2466 56.1883 31.2016 56.2108 31.1566 56.2333C31.1116 56.2559 31.0666 56.3009 31.0441 56.346C31.0216 56.3911 30.9991 56.4362 30.9991 56.4587V56.5263H30.5492C30.5492 56.4812 30.5717 56.4136 30.5942 56.3235C30.6167 56.2333 30.6617 56.1432 30.7292 56.053C30.7967 55.9629 30.8642 55.8728 30.9541 55.8051C31.0441 55.7375 31.1791 55.6925 31.3141 55.6925C31.4265 55.6925 31.5165 55.715 31.584 55.7375C31.674 55.7601 31.7415 55.8051 31.809 55.8502C31.8764 55.8953 31.9439 55.9178 32.0114 55.9629C32.0789 55.9854 32.1689 56.008 32.2363 56.008C32.3263 56.008 32.3938 55.9854 32.4388 55.9629C32.4838 55.9404 32.5288 55.8953 32.5513 55.8502C32.5738 55.8051 32.5963 55.7601 32.5963 55.7375V55.6699H33.0462C33.0462 55.6925 33.0237 55.7601 33.0012 55.8502C32.9787 55.9404 32.9337 56.0305 32.8662 56.1207C32.7987 56.2108 32.7312 56.3009 32.6188 56.3686C32.5738 56.4587 32.4388 56.5038 32.2813 56.5038Z" fill="white"/>
<path fill-rule="evenodd" clip-rule="evenodd" d="M38.2648 62.2742C37.9049 62.2742 37.5674 62.2066 37.275 62.0488C36.9826 61.9136 36.7126 61.7108 36.5102 61.4628C36.2852 61.2149 36.1278 60.9445 36.0153 60.629C35.9028 60.3135 35.8353 59.998 35.8353 59.6824C35.8353 59.3444 35.9028 59.0289 36.0153 58.7134C36.1503 58.3979 36.3077 58.1274 36.5327 57.8795C36.7576 57.6316 37.0051 57.4513 37.2975 57.3161C37.5899 57.1809 37.9273 57.1133 38.2648 57.1133C38.6247 57.1133 38.9621 57.1809 39.2546 57.3386C39.547 57.4964 39.8169 57.6767 40.0194 57.9246C40.2218 58.1725 40.4018 58.4429 40.5143 58.7585C40.6267 59.074 40.6942 59.3895 40.6942 59.705C40.6942 60.043 40.6267 60.3586 40.5143 60.6741C40.4018 60.9896 40.2218 61.26 39.9969 61.4854C39.7719 61.7107 39.5245 61.9136 39.2096 62.0488C38.9396 62.2066 38.6247 62.2742 38.2648 62.2742ZM36.6452 59.705C36.6452 59.9529 36.6901 60.1783 36.7576 60.4036C36.8251 60.629 36.9376 60.8318 37.0725 60.9896C37.2075 61.1699 37.3875 61.3051 37.5899 61.3952C37.7924 61.5079 38.0173 61.553 38.2648 61.553C38.5122 61.553 38.7597 61.5079 38.9396 61.3952C39.1196 61.2826 39.2995 61.1473 39.4345 60.967C39.5695 60.7867 39.682 60.5839 39.7494 60.3811C39.8169 60.1557 39.8619 59.9304 39.8619 59.705C39.8619 59.4571 39.8169 59.2317 39.7494 59.0064C39.682 58.781 39.5695 58.5782 39.4345 58.4204C39.2995 58.2626 39.1196 58.1049 38.9171 58.0147C38.7147 57.9246 38.4897 57.857 38.2648 57.857C38.0173 57.857 37.7699 57.9021 37.5674 58.0147C37.365 58.1274 37.2075 58.2626 37.0501 58.4429C36.8926 58.6232 36.8026 58.8035 36.7351 59.0289C36.6901 59.2543 36.6452 59.4796 36.6452 59.705Z" fill="white"/>
<path fill-rule="evenodd" clip-rule="evenodd" d="M49.8497 61.5294V62.2281H46.363V57.1348H49.7823V57.8334H47.1729V59.2757H49.4448V59.9518H47.1729V61.5069H49.8497V61.5294Z" fill="white"/>
<path fill-rule="evenodd" clip-rule="evenodd" d="M55.4958 62.2515V57.1582H57.7003C57.9253 57.1582 58.1502 57.2033 58.3302 57.2934C58.5327 57.3836 58.6901 57.5188 58.8251 57.6765C58.9601 57.8343 59.0725 58.0146 59.14 58.2174C59.2075 58.4203 59.2525 58.6231 59.2525 58.8259C59.2525 59.0062 59.23 59.164 59.185 59.3217C59.14 59.4795 59.0725 59.6147 58.9826 59.7499C58.8926 59.8851 58.8026 59.9978 58.6676 60.088C58.5327 60.1781 58.3977 60.2683 58.2627 60.3133L59.4549 62.2515H58.5551L57.4529 60.4711H56.2832V62.2515H55.4958ZM56.2832 59.7725H57.6779C57.7903 59.7725 57.9028 59.7499 57.9928 59.7048C58.0828 59.6598 58.1727 59.5922 58.2402 59.502C58.3077 59.4119 58.3527 59.3217 58.3977 59.1865C58.4427 59.0738 58.4652 58.9611 58.4652 58.8259C58.4652 58.6907 58.4427 58.578 58.3977 58.4653C58.3527 58.3526 58.2852 58.24 58.2177 58.1724C58.1502 58.0822 58.0603 58.0146 57.9703 57.9695C57.8803 57.9244 57.7678 57.9019 57.6554 57.9019H56.3057L56.2832 59.7725Z" fill="white"/>
<path fill-rule="evenodd" clip-rule="evenodd" d="M65.236 61.5294V62.2281H61.7493V57.1348H65.1685V57.8334H62.5366V59.2757H64.8086V59.9518H62.5366V61.5069H65.236V61.5294Z" fill="white"/>
<path fill-rule="evenodd" clip-rule="evenodd" d="M67.1483 59.6599C67.1483 59.3444 67.1933 59.0514 67.3058 58.7359C67.4183 58.4429 67.5757 58.15 67.7782 57.9246C67.9806 57.6767 68.2506 57.4964 68.5655 57.3386C68.8804 57.1809 69.2178 57.1133 69.6003 57.1133C70.0727 57.1133 70.4551 57.226 70.7925 57.4288C71.1299 57.6316 71.3774 57.9021 71.5348 58.2401L70.905 58.6683C70.8375 58.5105 70.7475 58.3753 70.6575 58.2852C70.5675 58.1725 70.4551 58.1049 70.3201 58.0373C70.2076 57.9697 70.0727 57.9246 69.9377 57.9021C69.8027 57.8795 69.6902 57.857 69.5553 57.857C69.2853 57.857 69.0604 57.9021 68.8579 58.0147C68.6555 58.1274 68.498 58.2626 68.363 58.4429C68.2281 58.6232 68.1156 58.8261 68.0481 59.0289C67.9806 59.2543 67.9356 59.4796 67.9356 59.6824C67.9356 59.9304 67.9806 60.1783 68.0481 60.3811C68.1381 60.6065 68.2506 60.8093 68.3855 60.967C68.5205 61.1473 68.7005 61.2826 68.9029 61.3727C69.1054 61.4628 69.3303 61.5305 69.5553 61.5305C69.6902 61.5305 69.8027 61.5079 69.9377 61.4854C70.0727 61.4628 70.1851 61.3952 70.3201 61.3276C70.4326 61.26 70.545 61.1699 70.6575 61.0572C70.77 60.9445 70.8375 60.8318 70.905 60.6741L71.5798 61.0572C71.4898 61.2375 71.3774 61.4178 71.2424 61.553C71.0849 61.6882 70.9275 61.8234 70.7475 61.9136C70.5675 62.0037 70.3651 62.0939 70.1626 62.1389C69.9602 62.184 69.7577 62.2066 69.5553 62.2066C69.1954 62.2066 68.8804 62.1389 68.5655 61.9812C68.2731 61.8234 68.0256 61.6206 67.8007 61.3727C67.5757 61.1248 67.4183 60.8544 67.3058 60.5389C67.2158 60.3135 67.1483 59.998 67.1483 59.6599Z" fill="white"/>
<path fill-rule="evenodd" clip-rule="evenodd" d="M75.9666 62.2742C75.6066 62.2742 75.2692 62.2066 74.9768 62.0488C74.6843 61.9136 74.4144 61.7108 74.212 61.4628C73.987 61.2149 73.8295 60.9445 73.7171 60.629C73.6046 60.3135 73.5371 59.998 73.5371 59.6824C73.5371 59.3444 73.6046 59.0289 73.7171 58.7134C73.852 58.3979 74.0095 58.1274 74.2344 57.8795C74.4594 57.6316 74.7068 57.4513 74.9993 57.3161C75.2917 57.1809 75.6291 57.1133 75.9666 57.1133C76.3265 57.1133 76.6639 57.1809 76.9563 57.3386C77.2488 57.4964 77.5187 57.6767 77.7212 57.9246C77.9236 58.1725 78.1036 58.4429 78.216 58.7585C78.3285 59.074 78.396 59.3895 78.396 59.705C78.396 60.043 78.3285 60.3586 78.216 60.6741C78.1036 60.9896 77.9236 61.26 77.6987 61.4854C77.4737 61.7107 77.2263 61.9136 76.9113 62.0488C76.6414 62.2066 76.304 62.2742 75.9666 62.2742ZM74.3469 59.705C74.3469 59.9529 74.3919 60.1783 74.4594 60.4036C74.5269 60.629 74.6394 60.8318 74.7743 60.9896C74.9093 61.1699 75.0893 61.3051 75.2917 61.3952C75.4942 61.5079 75.7191 61.553 75.9666 61.553C76.214 61.553 76.4614 61.5079 76.6414 61.3952C76.8214 61.2826 77.0013 61.1473 77.1363 60.967C77.2713 60.7867 77.3837 60.5839 77.4512 60.3811C77.5187 60.1557 77.5637 59.9304 77.5637 59.705C77.5637 59.4571 77.5187 59.2317 77.4512 59.0064C77.3837 58.781 77.2713 58.5782 77.1363 58.4204C77.0013 58.2626 76.8214 58.1049 76.6189 58.0147C76.4164 57.9246 76.1915 57.857 75.9666 57.857C75.7191 57.857 75.4717 57.9021 75.2692 58.0147C75.0668 58.1274 74.9093 58.2626 74.7518 58.4429C74.5944 58.6232 74.5044 58.8035 74.4369 59.0289C74.3694 59.2543 74.3469 59.4796 74.3469 59.705Z" fill="white"/>
<path fill-rule="evenodd" clip-rule="evenodd" d="M81.5448 58.6682V62.2515H80.7574V57.1582H81.3873L84.2891 60.8317V57.1582H85.099V62.2515H84.4241L81.5448 58.6682Z" fill="white"/>
<path fill-rule="evenodd" clip-rule="evenodd" d="M90.7683 58.3517C90.7233 58.3067 90.6558 58.2391 90.5658 58.194C90.4758 58.1264 90.3633 58.0813 90.2509 58.0362C90.1384 57.9912 90.0034 57.9461 89.846 57.901C89.711 57.8785 89.5535 57.8559 89.3961 57.8559C89.0586 57.8559 88.8112 57.9235 88.6537 58.0362C88.4963 58.1489 88.4063 58.3292 88.4063 58.5546C88.4063 58.6898 88.4288 58.7799 88.4738 58.8701C88.5188 58.9377 88.6087 59.0279 88.6987 59.0729C88.8112 59.1405 88.9237 59.1856 89.0811 59.2307C89.2386 59.2757 89.4186 59.3208 89.621 59.3884C89.8685 59.456 90.1159 59.5237 90.3184 59.5913C90.5208 59.6589 90.7008 59.7716 90.8357 59.8617C90.9707 59.9744 91.0832 60.1096 91.1732 60.2674C91.2631 60.4251 91.2856 60.6279 91.2856 60.8533C91.2856 61.1012 91.2406 61.3266 91.1282 61.5294C91.0157 61.7322 90.9032 61.8675 90.7233 61.9801C90.5433 62.0928 90.3633 62.183 90.1384 62.2281C89.9134 62.2731 89.666 62.3182 89.4186 62.3182C89.0361 62.3182 88.6537 62.2506 88.2938 62.1379C87.9339 62.0252 87.619 61.8449 87.3265 61.6196L87.6865 60.9209C87.7539 60.9885 87.8439 61.0561 87.9564 61.1238C88.0689 61.1914 88.2038 61.2815 88.3613 61.3266C88.5188 61.3942 88.6762 61.4393 88.8562 61.4843C89.0361 61.5294 89.2161 61.552 89.4186 61.552C89.7335 61.552 89.9809 61.5069 90.1384 61.3942C90.3184 61.2815 90.3858 61.1238 90.3858 60.8984C90.3858 60.7632 90.3633 60.673 90.2959 60.5829C90.2284 60.4927 90.1384 60.4251 90.0259 60.3575C89.9134 60.2899 89.756 60.2448 89.5985 60.1772C89.4186 60.1321 89.2386 60.0645 89.0137 60.0195C88.7662 59.9518 88.5413 59.8842 88.3613 59.8166C88.1813 59.749 88.0239 59.6589 87.8889 59.5462C87.7539 59.4335 87.664 59.3208 87.5965 59.1856C87.529 59.0504 87.5065 58.8701 87.5065 58.6673C87.5065 58.4194 87.5515 58.194 87.6415 58.0137C87.7314 57.8109 87.8664 57.6531 88.0239 57.5179C88.1813 57.3827 88.3838 57.2925 88.6087 57.2249C88.8337 57.1573 89.0811 57.1348 89.3286 57.1348C89.666 57.1348 89.9809 57.1798 90.2734 57.2925C90.5658 57.4052 90.8132 57.5404 91.0382 57.6982L90.7683 58.3517Z" fill="white"/>
<path fill-rule="evenodd" clip-rule="evenodd" d="M97.359 57.8558H95.6719V62.2504H94.862V57.8783H93.1749V57.1797H97.359V57.8558Z" fill="white"/>
<path fill-rule="evenodd" clip-rule="evenodd" d="M99.5632 62.2515V57.1582H101.768C101.993 57.1582 102.218 57.2033 102.398 57.2934C102.6 57.3836 102.758 57.5188 102.892 57.6765C103.027 57.8343 103.14 58.0146 103.207 58.2174C103.275 58.4203 103.32 58.6231 103.32 58.8259C103.32 59.0062 103.297 59.164 103.252 59.3217C103.207 59.4795 103.14 59.6147 103.05 59.7499C102.96 59.8851 102.87 59.9978 102.735 60.088C102.6 60.1781 102.465 60.2683 102.33 60.3133L103.522 62.2515H102.623L101.52 60.4711H100.351V62.2515H99.5632ZM100.373 59.7725H101.768C101.88 59.7725 101.993 59.7499 102.083 59.7048C102.173 59.6598 102.263 59.5922 102.33 59.502C102.398 59.4119 102.443 59.3217 102.488 59.1865C102.533 59.0738 102.555 58.9611 102.555 58.8259C102.555 58.6907 102.533 58.578 102.488 58.4653C102.443 58.3526 102.375 58.24 102.308 58.1724C102.24 58.0822 102.15 58.0146 102.06 57.9695C101.97 57.9244 101.858 57.9019 101.745 57.9019H100.396L100.373 59.7725Z" fill="white"/>
<path fill-rule="evenodd" clip-rule="evenodd" d="M107.931 61.552C108.201 61.552 108.426 61.5069 108.606 61.3942C108.786 61.2815 108.921 61.1463 109.033 60.9885C109.146 60.8308 109.213 60.6279 109.258 60.4026C109.303 60.1772 109.326 59.9518 109.326 59.7265V57.1348H110.136V59.7265C110.136 60.0645 110.091 60.4026 110.023 60.7181C109.933 61.0336 109.821 61.304 109.641 61.5294C109.461 61.7548 109.236 61.9351 108.966 62.0703C108.696 62.2055 108.359 62.2731 107.954 62.2731C107.549 62.2731 107.211 62.2055 106.919 62.0703C106.649 61.9351 106.424 61.7322 106.244 61.5069C106.064 61.2815 105.952 60.9885 105.862 60.6956C105.794 60.38 105.749 60.0645 105.749 59.749V57.1573H106.559V59.749C106.559 59.9744 106.581 60.1998 106.626 60.4251C106.671 60.6505 106.739 60.8308 106.851 61.0111C106.964 61.1914 107.099 61.3266 107.279 61.4167C107.459 61.5069 107.684 61.552 107.931 61.552Z" fill="white"/>
<path fill-rule="evenodd" clip-rule="evenodd" d="M120.574 57.1573H121.271L123.273 62.2506H122.418L121.878 60.8759H119.921L119.382 62.2506H118.527L120.574 57.1573ZM121.743 60.2674L120.934 58.0813L120.079 60.2674H121.743ZM121.361 56.5038C121.249 56.5038 121.159 56.4812 121.069 56.4587C120.979 56.4362 120.911 56.3911 120.844 56.346C120.776 56.3009 120.709 56.2784 120.641 56.2333C120.574 56.1883 120.506 56.1883 120.416 56.1883C120.326 56.1883 120.281 56.2108 120.236 56.2333C120.191 56.2559 120.146 56.3009 120.124 56.346C120.101 56.3911 120.079 56.4362 120.079 56.4587V56.5263H119.629C119.629 56.4812 119.651 56.4136 119.674 56.3235C119.696 56.2333 119.741 56.1432 119.809 56.053C119.876 55.9629 119.944 55.8728 120.034 55.8051C120.124 55.7375 120.259 55.6925 120.394 55.6925C120.506 55.6925 120.596 55.715 120.664 55.7375C120.731 55.7601 120.821 55.8051 120.889 55.8502C120.956 55.8953 121.024 55.9178 121.091 55.9629C121.159 55.9854 121.249 56.008 121.316 56.008C121.384 56.008 121.474 55.9854 121.519 55.9629C121.564 55.9404 121.609 55.8953 121.631 55.8502C121.654 55.8051 121.676 55.7601 121.676 55.7375V55.6699H122.126C122.126 55.6925 122.103 55.7601 122.081 55.8502C122.058 55.9404 122.013 56.0305 121.946 56.1207C121.878 56.2108 121.811 56.3009 121.699 56.3686C121.654 56.4587 121.519 56.5038 121.361 56.5038Z" fill="white"/>
<path fill-rule="evenodd" clip-rule="evenodd" d="M127.345 62.2742C126.985 62.2742 126.647 62.2066 126.355 62.0488C126.062 61.891 125.792 61.7108 125.59 61.4628C125.365 61.2149 125.208 60.9445 125.095 60.629C124.983 60.3135 124.915 59.998 124.915 59.6824C124.915 59.3444 124.983 59.0289 125.095 58.7134C125.23 58.3979 125.388 58.1274 125.612 57.8795C125.837 57.6316 126.085 57.4513 126.377 57.3161C126.67 57.1809 127.007 57.1133 127.345 57.1133C127.705 57.1133 128.042 57.1809 128.334 57.3386C128.627 57.4964 128.897 57.6767 129.099 57.9246C129.302 58.1725 129.482 58.4429 129.594 58.7585C129.707 59.074 129.774 59.3895 129.774 59.705C129.774 60.043 129.707 60.3586 129.594 60.6741C129.482 60.9896 129.302 61.26 129.077 61.4854C128.852 61.7107 128.604 61.9136 128.289 62.0488C128.019 62.2066 127.705 62.2742 127.345 62.2742ZM125.747 59.705C125.747 59.9529 125.792 60.1783 125.86 60.4036C125.927 60.629 126.04 60.8318 126.175 60.9896C126.31 61.1699 126.49 61.3051 126.692 61.3952C126.895 61.5079 127.12 61.553 127.367 61.553C127.615 61.553 127.862 61.5079 128.042 61.3952C128.244 61.2826 128.402 61.1473 128.537 60.967C128.672 60.7867 128.784 60.5839 128.852 60.3811C128.919 60.1557 128.964 59.9304 128.964 59.705C128.964 59.4571 128.919 59.2317 128.852 59.0064C128.784 58.781 128.672 58.5782 128.537 58.4204C128.402 58.2401 128.222 58.1049 128.019 58.0147C127.817 57.9021 127.592 57.857 127.367 57.857C127.12 57.857 126.872 57.9021 126.67 58.0147C126.467 58.1274 126.31 58.2626 126.152 58.4429C125.995 58.6232 125.905 58.8035 125.837 59.0289C125.77 59.2543 125.747 59.4796 125.747 59.705Z" fill="white"/>
<path fill-rule="evenodd" clip-rule="evenodd" d="M114.74 62.2848C114.418 62.2738 114.122 62.1971 113.848 62.0545C113.553 61.9009 113.295 61.7035 113.082 61.4567C112.868 61.2099 112.704 60.9302 112.584 60.6176C112.463 60.305 112.403 59.987 112.403 59.6579C112.403 59.3508 112.458 59.0492 112.567 58.7421C112.677 58.4404 112.841 58.1662 113.049 57.9249C113.263 57.6836 113.52 57.4862 113.826 57.3381C114.133 57.1901 114.478 57.1133 114.866 57.1133C115.332 57.1133 115.726 57.2175 116.054 57.4204C116.383 57.6233 116.634 57.892 116.799 58.2211L116.169 58.6434C116.098 58.4898 116.01 58.3637 115.912 58.254C115.813 58.1498 115.704 58.0675 115.583 58.0017C115.463 57.9414 115.343 57.8975 115.211 57.8701C115.08 57.8427 114.959 57.8317 114.839 57.8317C114.571 57.8317 114.335 57.8865 114.138 57.9907C113.936 58.1004 113.772 58.243 113.635 58.4185C113.498 58.594 113.394 58.7914 113.328 59.0163C113.257 59.2356 113.224 59.455 113.224 59.6744C113.224 59.9212 113.262 60.157 113.345 60.3818C113.427 60.6067 113.542 60.8041 113.684 60.9796C113.832 61.1496 114.001 61.2867 114.204 61.3909C114.407 61.4951 114.626 61.5445 114.861 61.5445C114.987 61.5445 115.113 61.528 115.244 61.5006C115.375 61.4677 115.501 61.4183 115.622 61.3525C115.742 61.2812 115.857 61.1935 115.956 61.0893C116.06 60.9851 116.142 60.8589 116.207 60.7109L116.875 61.0893C116.793 61.2812 116.678 61.4512 116.53 61.5938C116.383 61.7419 116.213 61.8625 116.032 61.9612C115.846 62.06 115.649 62.1367 115.441 62.1916C115.326 62.219 115.206 62.2409 115.091 62.2574C115.321 62.57 115.687 62.91 115.468 63.3378C115.162 63.941 114.215 63.6284 113.919 63.4968L114.116 63.0471C114.116 63.0471 114.653 63.442 115.009 63.1787C115.364 62.9374 115.003 62.6413 114.74 62.2848Z" fill="white"/>
<path fill-rule="evenodd" clip-rule="evenodd" d="M0.516357 27.2441H12.57V48.8985H0.516357V27.2441Z" fill="#FDDB00"/>
<path fill-rule="evenodd" clip-rule="evenodd" d="M0.516357 14.3809H12.57V28.2116H0.516357V14.3809Z" fill="#01D101"/>
<path fill-rule="evenodd" clip-rule="evenodd" d="M26.7155 14.3789L40.1333 35.0697H26.7155V14.3789Z" fill="#FDDB00"/>
</svg>
