<svg width="476" height="213" viewBox="0 0 476 213" fill="none" xmlns="http://www.w3.org/2000/svg">
<path fill-rule="evenodd" clip-rule="evenodd" d="M211.015 47.0332L280.553 163.218H141.495L211.015 47.0332Z" fill="#FDDB00"/>
<path fill-rule="evenodd" clip-rule="evenodd" d="M88.2129 47.0332L163.59 163.218H88.2129V47.0332Z" fill="#01D101"/>
<path fill-rule="evenodd" clip-rule="evenodd" d="M152.089 145.482L141.491 163.201H163.589L152.089 145.482Z" fill="#4E4E4E"/>
<path fill-rule="evenodd" clip-rule="evenodd" d="M211.013 120.617C234.488 120.617 253.547 139.704 253.547 163.212H168.479C168.479 139.704 187.538 120.617 211.013 120.617Z" fill="#193DFF"/>
<path fill-rule="evenodd" clip-rule="evenodd" d="M133.806 47.0332C152.992 47.0332 168.566 62.6291 168.566 81.8424C168.566 101.056 152.992 116.652 133.806 116.652L98.8434 109.841L88.209 47.0332H133.806Z" fill="#193DFF"/>
<path fill-rule="evenodd" clip-rule="evenodd" d="M435.759 124.035H476V163.205H435.759V124.035Z" fill="#193DFF"/>
<path fill-rule="evenodd" clip-rule="evenodd" d="M395.535 124.035H435.776V163.205H395.535V124.035Z" fill="#4E4E4E"/>
<path fill-rule="evenodd" clip-rule="evenodd" d="M395.535 47.207H435.776V124.031H395.535V47.207Z" fill="#FDDB00"/>
<path fill-rule="evenodd" clip-rule="evenodd" d="M348.413 47.2383H388.654V163.233H348.413V47.2383Z" fill="#01D101"/>
<path fill-rule="evenodd" clip-rule="evenodd" d="M288.604 156.001C279.481 149.264 273.564 138.43 273.564 126.212C273.564 113.993 279.481 103.159 288.604 96.4227V89.2246H310.499C330.883 89.2246 347.434 105.799 347.434 126.212C347.434 146.625 330.883 163.199 310.499 163.199H288.604V156.001Z" fill="#FDDB00"/>
<path fill-rule="evenodd" clip-rule="evenodd" d="M301.025 82.0085L299.606 89.2251V97.4937H285.304C271.408 97.4937 260.11 86.1797 260.11 72.2634C260.11 58.3471 271.408 47.0332 285.304 47.0332H299.606L301.025 54.2497V82.0085Z" fill="#01D101"/>
<path fill-rule="evenodd" clip-rule="evenodd" d="M299.61 47.0234H341.558V89.2253H299.61V47.0234Z" fill="#193DFF"/>
<path fill-rule="evenodd" clip-rule="evenodd" d="M260.104 97.4863H299.605V163.212H260.104V97.4863Z" fill="#FF0000"/>
<path fill-rule="evenodd" clip-rule="evenodd" d="M53.4485 93.5801C72.6346 93.5801 88.2084 109.176 88.2084 128.389C88.2084 147.603 72.6346 163.199 53.4485 163.199H0V93.5801H53.4485Z" fill="#FF0000"/>
<path fill-rule="evenodd" clip-rule="evenodd" d="M49.7627 47.0332C62.5902 47.0332 73.0033 57.4612 73.0033 70.307C73.0033 83.1528 62.5902 93.5808 49.7627 93.5808H21.8594L38.5572 47.0332H49.7627Z" fill="#193DFF"/>
<path d="M49.8435 10.2952V15.031H55.8061C55.2921 16.4723 53.7501 17.6048 51.3856 17.6048C47.993 17.6048 45.7313 15.134 45.7313 11.8395C45.7313 8.44207 48.0958 5.86828 51.2827 5.86828C53.3388 5.86828 55.1893 6.89781 56.1145 8.648L61.2548 5.55944C59.1987 2.16202 55.3949 0 51.3856 0C44.9088 0 39.7686 5.14763 39.7686 11.7366C39.7686 18.2225 44.9088 23.3701 51.4883 23.3701C57.6566 23.3701 62.2828 18.8402 62.2828 11.9424V10.1923L49.8435 10.2952Z" fill="black"/>
<path d="M82.7413 23.4723C89.218 23.4723 94.3582 18.3246 94.3582 11.8386C94.3582 5.35267 89.218 0.205078 82.7413 0.205078C76.2646 0.205078 71.0215 5.35267 71.0215 11.8386C71.0215 18.3246 76.1618 23.4723 82.7413 23.4723ZM82.7413 17.2951C79.7599 17.2951 77.4982 14.9272 77.4982 11.8386C77.4982 8.64714 79.7599 6.3822 82.7413 6.3822C85.6198 6.3822 87.8815 8.75009 87.8815 11.8386C87.8815 14.9272 85.6198 17.2951 82.7413 17.2951Z" fill="black"/>
<path d="M116.668 0.720703L111.425 14.4133L106.284 0.720703H99.8076L108.443 22.9584H114.406L123.144 0.720703H116.668Z" fill="black"/>
<path d="M146.687 6.07367V0.617188H130.752V22.8548H146.687V17.3984H136.817V14.1039H143.397V9.47107H136.817V6.17659L146.687 6.07367Z" fill="black"/>
<path d="M168.585 22.9584H175.267L170.333 14.4133C172.697 13.1779 174.239 10.81 174.239 7.92735C174.239 3.80927 170.949 0.720703 166.529 0.720703H155.734V22.9584H161.697V15.237H164.164L168.585 22.9584ZM161.697 5.97127H165.912C167.351 5.97127 168.174 7.00079 168.174 8.03031C168.174 9.05983 167.248 10.0893 165.912 10.0893H161.697V5.97127Z" fill="black"/>
<path d="M197.37 0.720703V12.4572L188.426 0.720703H183.389V22.9584H189.351V11.2218L198.295 22.9584H203.333V0.720703H197.37Z" fill="black"/>
<path d="M223.483 23.4723C229.96 23.4723 235.1 18.3246 235.1 11.8386C235.1 5.35267 229.96 0.205078 223.483 0.205078C217.007 0.205078 211.764 5.35267 211.764 11.8386C211.764 18.3246 216.904 23.4723 223.483 23.4723ZM223.483 17.2951C220.502 17.2951 218.24 14.9272 218.24 11.8386C218.24 8.64714 220.502 6.3822 223.483 6.3822C226.362 6.3822 228.624 8.75009 228.624 11.8386C228.624 14.9272 226.362 17.2951 223.483 17.2951Z" fill="black"/>
<path d="M274.064 5.97071V0.617188H258.129V22.8548H264.194V14.7216H270.774V9.67699H264.194V5.86775H274.064V5.97071Z" fill="black"/>
<path d="M298.737 6.07367V0.617188H282.803V22.8548H298.737V17.3984H288.868V14.1039H295.448V9.47107H288.868V6.17659L298.737 6.07367Z" fill="black"/>
<path d="M316.935 0.720703H307.888V22.9584H316.935C323.72 22.9584 328.757 18.2225 328.757 11.8395C328.757 5.45649 323.72 0.720703 316.935 0.720703ZM316.626 17.193H313.953V6.48603H316.626C320.121 6.48603 322.589 8.54505 322.589 11.8395C322.589 15.031 320.121 17.193 316.626 17.193Z" fill="black"/>
<path d="M353.225 6.07367V0.617188H337.29V22.8548H353.225V17.3984H343.356V14.1039H349.935V9.47107H343.356V6.17659L353.225 6.07367Z" fill="black"/>
<path d="M375.123 22.9584H381.805L376.871 14.4133C379.235 13.1779 380.777 10.81 380.777 7.92735C380.777 3.80927 377.488 0.720703 373.067 0.720703H362.272V22.9584H368.235V15.237H370.702L375.123 22.9584ZM368.235 5.97127H372.45C373.889 5.97127 374.712 7.00079 374.712 8.03031C374.712 9.05983 373.787 10.0893 372.45 10.0893H368.235V5.97127Z" fill="black"/>
<path d="M406.376 22.9584H412.544L403.189 0.720703H397.535L388.282 22.9584H394.553L396.095 19.1491H404.937L406.376 22.9584ZM398.152 13.7956L400.413 8.33915L402.675 13.7956H398.152Z" fill="black"/>
<path d="M426.526 17.1925V0.617188H420.255V22.8548H435.881V17.0895H426.526V17.1925Z" fill="black"/>
<path fill-rule="evenodd" clip-rule="evenodd" d="M260.11 129.055L280.55 163.218H260.11V129.055Z" fill="#4E4E4E"/>
<path fill-rule="evenodd" clip-rule="evenodd" d="M47.8017 205.78C48.7105 205.78 49.4679 205.628 50.0738 205.249C50.6797 204.87 51.1341 204.415 51.5128 203.884C51.8915 203.353 52.1187 202.67 52.2702 201.912C52.4216 201.153 52.4974 200.395 52.4974 199.636V190.914H55.224V199.636C55.224 200.774 55.0725 201.912 54.8453 202.974C54.5423 204.035 54.1636 204.946 53.5577 205.704C52.9518 206.463 52.1944 207.069 51.2856 207.524C50.3767 207.979 49.2407 208.207 47.8774 208.207C46.5141 208.207 45.378 207.979 44.3935 207.524C43.4846 207.069 42.7272 206.387 42.1213 205.628C41.5154 204.87 41.1367 203.884 40.8338 202.898C40.6066 201.836 40.4551 200.774 40.4551 199.712V190.99H43.1816V199.712C43.1816 200.471 43.2573 201.229 43.4088 201.988C43.5603 202.746 43.7875 203.353 44.1662 203.96C44.5449 204.566 44.9993 205.021 45.6052 205.325C46.2111 205.628 46.8928 205.78 47.8017 205.78Z" fill="black"/>
<path fill-rule="evenodd" clip-rule="evenodd" d="M66.6611 196.072V208.131H63.9346V190.99H66.0552L75.8254 203.353V190.99H78.552V208.131H76.2798L66.6611 196.072Z" fill="black"/>
<path fill-rule="evenodd" clip-rule="evenodd" d="M87.5654 190.99H90.292V208.131H87.5654V190.99Z" fill="black"/>
<path fill-rule="evenodd" clip-rule="evenodd" d="M104.303 190.99H106.651L113.391 208.131H110.513L108.696 203.505H102.106L100.289 208.131H97.4863L104.303 190.99ZM108.165 201.457L105.439 194.1L102.561 201.457H108.165ZM106.954 188.791C106.575 188.791 106.272 188.715 105.969 188.639C105.666 188.563 105.439 188.411 105.212 188.26C104.984 188.108 104.757 188.032 104.53 187.881C104.303 187.805 104.076 187.729 103.773 187.729C103.47 187.729 103.318 187.805 103.167 187.881C103.015 187.956 102.864 188.108 102.788 188.26C102.712 188.411 102.636 188.563 102.636 188.639V188.867H101.122C101.122 188.715 101.197 188.487 101.273 188.184C101.349 187.881 101.5 187.577 101.728 187.274C101.955 186.97 102.182 186.667 102.485 186.439C102.788 186.212 103.242 186.06 103.697 186.06C104.076 186.06 104.378 186.136 104.606 186.212C104.909 186.288 105.136 186.439 105.363 186.591C105.59 186.743 105.817 186.819 106.045 186.97C106.272 187.046 106.575 187.122 106.802 187.122C107.105 187.122 107.332 187.046 107.484 186.97C107.635 186.895 107.787 186.743 107.862 186.591C107.938 186.439 108.014 186.288 108.014 186.212V185.984H109.529C109.529 186.06 109.453 186.288 109.377 186.591C109.301 186.895 109.15 187.198 108.923 187.501C108.696 187.805 108.468 188.108 108.09 188.336C107.938 188.639 107.484 188.791 106.954 188.791Z" fill="black"/>
<path fill-rule="evenodd" clip-rule="evenodd" d="M127.1 208.207C125.888 208.207 124.752 207.979 123.767 207.448C122.783 206.993 121.874 206.311 121.192 205.476C120.435 204.642 119.905 203.732 119.526 202.67C119.147 201.608 118.92 200.546 118.92 199.484C118.92 198.347 119.147 197.285 119.526 196.223C119.98 195.161 120.51 194.251 121.268 193.417C122.025 192.582 122.858 191.976 123.843 191.521C124.827 191.065 125.964 190.838 127.1 190.838C128.311 190.838 129.447 191.065 130.432 191.596C131.417 192.127 132.326 192.734 133.007 193.568C133.689 194.403 134.295 195.313 134.673 196.375C135.052 197.437 135.279 198.498 135.279 199.56C135.279 200.698 135.052 201.76 134.673 202.822C134.295 203.883 133.689 204.794 132.931 205.552C132.174 206.311 131.341 206.993 130.281 207.448C129.372 207.979 128.311 208.207 127.1 208.207ZM121.647 199.56C121.647 200.395 121.798 201.153 122.025 201.911C122.252 202.67 122.631 203.353 123.086 203.883C123.54 204.49 124.146 204.945 124.827 205.249C125.509 205.628 126.266 205.78 127.1 205.78C127.933 205.78 128.766 205.628 129.372 205.249C129.978 204.869 130.584 204.414 131.038 203.808C131.492 203.201 131.871 202.518 132.098 201.836C132.326 201.077 132.477 200.319 132.477 199.56C132.477 198.726 132.326 197.967 132.098 197.209C131.871 196.45 131.492 195.768 131.038 195.237C130.584 194.706 129.978 194.175 129.296 193.872C128.614 193.568 127.857 193.341 127.1 193.341C126.266 193.341 125.433 193.493 124.752 193.872C124.07 194.251 123.54 194.706 123.01 195.313C122.48 195.92 122.177 196.526 121.949 197.285C121.798 198.043 121.647 198.802 121.647 199.56Z" fill="black"/>
<path fill-rule="evenodd" clip-rule="evenodd" d="M166.106 205.704V208.055H154.366V190.914H165.878V193.265H157.093V198.119H164.742V200.395H157.093V205.628H166.106V205.704Z" fill="black"/>
<path fill-rule="evenodd" clip-rule="evenodd" d="M185.116 208.131V190.99H192.539C193.296 190.99 194.053 191.142 194.659 191.445C195.341 191.749 195.871 192.204 196.325 192.735C196.78 193.266 197.159 193.872 197.386 194.555C197.613 195.238 197.764 195.92 197.764 196.603C197.764 197.21 197.689 197.741 197.537 198.271C197.386 198.802 197.159 199.258 196.856 199.713C196.553 200.168 196.25 200.547 195.795 200.85C195.341 201.154 194.886 201.457 194.432 201.609L198.446 208.131H195.417L191.705 202.14H187.767V208.131H185.116ZM187.767 199.788H192.463C192.841 199.788 193.22 199.713 193.523 199.561C193.826 199.409 194.129 199.182 194.356 198.878C194.583 198.575 194.735 198.272 194.886 197.816C195.038 197.437 195.114 197.058 195.114 196.603C195.114 196.148 195.038 195.769 194.886 195.389C194.735 195.01 194.508 194.631 194.28 194.403C194.053 194.1 193.75 193.872 193.447 193.721C193.144 193.569 192.766 193.493 192.387 193.493H187.843L187.767 199.788Z" fill="black"/>
<path fill-rule="evenodd" clip-rule="evenodd" d="M217.91 205.704V208.055H206.171V190.914H217.683V193.265H208.822V198.119H216.471V200.395H208.822V205.628H217.91V205.704Z" fill="black"/>
<path fill-rule="evenodd" clip-rule="evenodd" d="M224.35 199.409C224.35 198.347 224.501 197.361 224.88 196.299C225.258 195.313 225.789 194.327 226.47 193.568C227.152 192.734 228.061 192.127 229.121 191.596C230.181 191.065 231.318 190.838 232.605 190.838C234.196 190.838 235.483 191.217 236.619 191.9C237.755 192.582 238.588 193.493 239.118 194.63L236.998 196.071C236.771 195.54 236.468 195.085 236.165 194.782C235.862 194.403 235.483 194.175 235.029 193.948C234.65 193.72 234.196 193.568 233.741 193.493C233.287 193.417 232.908 193.341 232.454 193.341C231.545 193.341 230.787 193.493 230.106 193.872C229.424 194.251 228.894 194.706 228.439 195.313C227.985 195.92 227.606 196.602 227.379 197.285C227.152 198.043 227 198.802 227 199.484C227 200.319 227.152 201.153 227.379 201.836C227.682 202.594 228.061 203.277 228.515 203.808C228.97 204.414 229.576 204.869 230.257 205.173C230.939 205.476 231.696 205.704 232.454 205.704C232.908 205.704 233.287 205.628 233.741 205.552C234.196 205.476 234.574 205.249 235.029 205.021C235.407 204.794 235.786 204.49 236.165 204.111C236.543 203.732 236.771 203.353 236.998 202.822L239.27 204.111C238.967 204.718 238.588 205.325 238.134 205.78C237.604 206.235 237.074 206.69 236.468 206.993C235.862 207.297 235.18 207.6 234.498 207.752C233.817 207.903 233.135 207.979 232.454 207.979C231.242 207.979 230.181 207.752 229.121 207.221C228.136 206.69 227.303 206.007 226.546 205.173C225.789 204.339 225.258 203.428 224.88 202.367C224.577 201.608 224.35 200.546 224.35 199.409Z" fill="black"/>
<path fill-rule="evenodd" clip-rule="evenodd" d="M254.039 208.207C252.827 208.207 251.691 207.979 250.707 207.448C249.722 206.993 248.813 206.311 248.132 205.476C247.374 204.642 246.844 203.732 246.465 202.67C246.087 201.608 245.859 200.546 245.859 199.484C245.859 198.347 246.087 197.285 246.465 196.223C246.92 195.161 247.45 194.251 248.207 193.417C248.965 192.582 249.798 191.976 250.782 191.521C251.767 191.065 252.903 190.838 254.039 190.838C255.251 190.838 256.387 191.065 257.371 191.596C258.356 192.127 259.265 192.734 259.947 193.568C260.628 194.403 261.234 195.313 261.613 196.375C261.992 197.437 262.219 198.498 262.219 199.56C262.219 200.698 261.992 201.76 261.613 202.822C261.234 203.883 260.628 204.794 259.871 205.552C259.113 206.311 258.28 206.993 257.22 207.448C256.311 207.979 255.175 208.207 254.039 208.207ZM248.586 199.56C248.586 200.395 248.737 201.153 248.965 201.911C249.192 202.67 249.571 203.353 250.025 203.883C250.479 204.49 251.085 204.945 251.767 205.249C252.449 205.628 253.206 205.78 254.039 205.78C254.872 205.78 255.705 205.628 256.311 205.249C256.917 204.869 257.523 204.414 257.977 203.808C258.432 203.201 258.811 202.518 259.038 201.836C259.265 201.077 259.416 200.319 259.416 199.56C259.416 198.726 259.265 197.967 259.038 197.209C258.811 196.45 258.432 195.768 257.977 195.237C257.523 194.706 256.917 194.175 256.235 193.872C255.554 193.568 254.796 193.341 254.039 193.341C253.206 193.341 252.373 193.493 251.691 193.872C251.01 194.251 250.479 194.706 249.949 195.313C249.419 195.92 249.116 196.526 248.889 197.285C248.662 198.043 248.586 198.802 248.586 199.56Z" fill="black"/>
<path fill-rule="evenodd" clip-rule="evenodd" d="M272.822 196.072V208.131H270.171V190.99H272.292L282.062 203.353V190.99H284.788V208.131H282.516L272.822 196.072Z" fill="black"/>
<path fill-rule="evenodd" clip-rule="evenodd" d="M303.875 195.01C303.724 194.858 303.496 194.631 303.193 194.479C302.89 194.251 302.512 194.1 302.133 193.948C301.754 193.796 301.3 193.645 300.77 193.493C300.315 193.417 299.785 193.341 299.255 193.341C298.119 193.341 297.286 193.569 296.756 193.948C296.225 194.327 295.923 194.934 295.923 195.692C295.923 196.147 295.998 196.451 296.15 196.754C296.301 196.982 296.604 197.285 296.907 197.437C297.286 197.664 297.664 197.816 298.195 197.968C298.725 198.119 299.331 198.271 300.012 198.499C300.845 198.726 301.679 198.954 302.36 199.181C303.042 199.409 303.648 199.788 304.102 200.091C304.557 200.471 304.935 200.926 305.238 201.457C305.541 201.988 305.617 202.67 305.617 203.429C305.617 204.263 305.465 205.021 305.087 205.704C304.708 206.387 304.329 206.842 303.723 207.221C303.118 207.6 302.512 207.904 301.754 208.055C300.997 208.207 300.164 208.359 299.331 208.359C298.043 208.359 296.756 208.131 295.544 207.752C294.332 207.373 293.272 206.766 292.287 206.007L293.499 203.656C293.726 203.884 294.029 204.111 294.408 204.339C294.786 204.566 295.241 204.87 295.771 205.021C296.301 205.249 296.831 205.401 297.437 205.552C298.043 205.704 298.649 205.78 299.331 205.78C300.391 205.78 301.224 205.628 301.754 205.249C302.36 204.87 302.587 204.339 302.587 203.58C302.587 203.125 302.512 202.822 302.285 202.519C302.057 202.215 301.754 201.988 301.376 201.76C300.997 201.533 300.467 201.381 299.937 201.153C299.331 201.002 298.725 200.774 297.967 200.622C297.134 200.395 296.377 200.167 295.771 199.94C295.165 199.712 294.635 199.409 294.181 199.03C293.726 198.65 293.423 198.271 293.196 197.816C292.969 197.361 292.893 196.754 292.893 196.072C292.893 195.237 293.044 194.479 293.347 193.872C293.65 193.189 294.105 192.659 294.635 192.203C295.165 191.748 295.847 191.445 296.604 191.217C297.362 190.99 298.195 190.914 299.028 190.914C300.164 190.914 301.224 191.066 302.209 191.445C303.193 191.824 304.026 192.279 304.784 192.81L303.875 195.01Z" fill="black"/>
<path fill-rule="evenodd" clip-rule="evenodd" d="M326.066 193.342H320.385V208.132H317.659V193.418H311.979V191.066H326.066V193.342Z" fill="black"/>
<path fill-rule="evenodd" clip-rule="evenodd" d="M333.488 208.131V190.99H340.911C341.668 190.99 342.425 191.142 343.031 191.445C343.713 191.749 344.243 192.204 344.698 192.735C345.152 193.266 345.531 193.872 345.758 194.555C345.985 195.238 346.137 195.92 346.137 196.603C346.137 197.21 346.061 197.741 345.909 198.271C345.758 198.802 345.531 199.258 345.228 199.713C344.925 200.168 344.622 200.547 344.167 200.85C343.713 201.154 343.258 201.457 342.804 201.609L346.818 208.131H343.789L340.077 202.14H336.139V208.131H333.488ZM336.215 199.788H340.911C341.289 199.788 341.668 199.713 341.971 199.561C342.274 199.409 342.577 199.182 342.804 198.878C343.031 198.575 343.183 198.272 343.334 197.816C343.486 197.437 343.561 197.058 343.561 196.603C343.561 196.148 343.486 195.769 343.334 195.389C343.183 195.01 342.956 194.631 342.728 194.403C342.501 194.1 342.198 193.872 341.895 193.721C341.592 193.569 341.214 193.493 340.835 193.493H336.291L336.215 199.788Z" fill="black"/>
<path fill-rule="evenodd" clip-rule="evenodd" d="M361.664 205.78C362.573 205.78 363.33 205.628 363.936 205.249C364.542 204.87 364.996 204.415 365.375 203.884C365.754 203.353 365.981 202.67 366.133 201.912C366.284 201.153 366.36 200.395 366.36 199.636V190.914H369.086V199.636C369.086 200.774 368.935 201.912 368.708 202.974C368.405 204.035 368.026 204.946 367.42 205.704C366.814 206.463 366.057 207.069 365.148 207.524C364.239 207.979 363.103 208.207 361.74 208.207C360.376 208.207 359.24 207.979 358.256 207.524C357.347 207.069 356.59 206.387 355.984 205.628C355.378 204.87 354.999 203.884 354.696 202.898C354.469 201.836 354.317 200.774 354.317 199.712V190.99H357.044V199.712C357.044 200.471 357.12 201.229 357.271 201.988C357.423 202.746 357.65 203.353 358.029 203.96C358.407 204.566 358.862 205.021 359.468 205.325C360.073 205.628 360.831 205.78 361.664 205.78Z" fill="black"/>
<path fill-rule="evenodd" clip-rule="evenodd" d="M404.229 190.99H406.577L413.318 208.131H410.439L408.622 203.505H402.033L400.215 208.131H397.337L404.229 190.99ZM408.167 201.457L405.441 194.1L402.563 201.457H408.167ZM406.88 188.791C406.501 188.791 406.198 188.715 405.895 188.639C405.592 188.563 405.365 188.411 405.138 188.26C404.911 188.108 404.683 188.032 404.456 187.881C404.229 187.729 404.002 187.729 403.699 187.729C403.396 187.729 403.244 187.805 403.093 187.881C402.941 187.956 402.79 188.108 402.714 188.26C402.639 188.411 402.563 188.563 402.563 188.639V188.867H401.048C401.048 188.715 401.124 188.487 401.2 188.184C401.275 187.881 401.427 187.577 401.654 187.274C401.881 186.97 402.108 186.667 402.411 186.439C402.714 186.212 403.169 186.06 403.623 186.06C404.002 186.06 404.305 186.136 404.532 186.212C404.759 186.288 405.062 186.439 405.289 186.591C405.517 186.743 405.744 186.819 405.971 186.97C406.198 187.046 406.501 187.122 406.728 187.122C406.956 187.122 407.259 187.046 407.41 186.97C407.561 186.895 407.713 186.743 407.789 186.591C407.864 186.439 407.94 186.288 407.94 186.212V185.984H409.455C409.455 186.06 409.379 186.288 409.303 186.591C409.228 186.895 409.076 187.198 408.849 187.501C408.622 187.805 408.395 188.108 408.016 188.336C407.864 188.639 407.41 188.791 406.88 188.791Z" fill="black"/>
<path fill-rule="evenodd" clip-rule="evenodd" d="M427.025 208.207C425.814 208.207 424.677 207.979 423.693 207.448C422.708 206.917 421.799 206.311 421.118 205.476C420.36 204.642 419.83 203.732 419.452 202.67C419.073 201.608 418.846 200.546 418.846 199.484C418.846 198.347 419.073 197.285 419.452 196.223C419.906 195.161 420.436 194.251 421.194 193.417C421.951 192.582 422.784 191.976 423.769 191.521C424.753 191.065 425.889 190.838 427.025 190.838C428.237 190.838 429.373 191.065 430.358 191.596C431.342 192.127 432.251 192.734 432.933 193.568C433.615 194.403 434.22 195.313 434.599 196.375C434.978 197.437 435.205 198.498 435.205 199.56C435.205 200.698 434.978 201.76 434.599 202.822C434.22 203.883 433.615 204.794 432.857 205.552C432.1 206.311 431.267 206.993 430.206 207.448C429.298 207.979 428.237 208.207 427.025 208.207ZM421.648 199.56C421.648 200.395 421.799 201.153 422.027 201.911C422.254 202.67 422.633 203.353 423.087 203.883C423.541 204.49 424.147 204.945 424.829 205.249C425.511 205.628 426.268 205.78 427.101 205.78C427.934 205.78 428.767 205.628 429.373 205.249C430.055 204.869 430.585 204.414 431.039 203.808C431.494 203.201 431.873 202.518 432.1 201.836C432.327 201.077 432.479 200.319 432.479 199.56C432.479 198.726 432.327 197.967 432.1 197.209C431.873 196.45 431.494 195.768 431.039 195.237C430.585 194.63 429.979 194.175 429.297 193.872C428.616 193.493 427.858 193.341 427.101 193.341C426.268 193.341 425.435 193.493 424.753 193.872C424.072 194.251 423.541 194.706 423.011 195.313C422.481 195.92 422.178 196.526 421.951 197.285C421.724 198.043 421.648 198.802 421.648 199.56Z" fill="black"/>
<path fill-rule="evenodd" clip-rule="evenodd" d="M384.589 208.25C383.502 208.213 382.507 207.955 381.585 207.475C380.59 206.958 379.724 206.294 379.005 205.463C378.286 204.633 377.733 203.692 377.328 202.64C376.923 201.587 376.72 200.517 376.72 199.41C376.72 198.376 376.904 197.361 377.273 196.327C377.641 195.312 378.194 194.389 378.895 193.577C379.613 192.765 380.479 192.101 381.512 191.602C382.544 191.104 383.705 190.846 385.013 190.846C386.58 190.846 387.907 191.196 389.013 191.879C390.119 192.562 390.966 193.467 391.519 194.574L389.4 195.995C389.16 195.478 388.865 195.054 388.534 194.685C388.202 194.334 387.833 194.057 387.428 193.836C387.022 193.633 386.617 193.485 386.174 193.393C385.732 193.3 385.327 193.264 384.921 193.264C384.018 193.264 383.226 193.448 382.562 193.799C381.88 194.168 381.327 194.648 380.867 195.238C380.406 195.829 380.056 196.493 379.834 197.25C379.595 197.988 379.484 198.727 379.484 199.465C379.484 200.296 379.613 201.089 379.89 201.846C380.166 202.603 380.553 203.267 381.032 203.858C381.53 204.43 382.101 204.891 382.783 205.242C383.465 205.593 384.202 205.759 384.995 205.759C385.419 205.759 385.843 205.703 386.285 205.611C386.727 205.5 387.151 205.334 387.557 205.113C387.962 204.873 388.349 204.577 388.681 204.227C389.031 203.876 389.308 203.452 389.529 202.953L391.777 204.227C391.501 204.873 391.114 205.445 390.616 205.925C390.118 206.423 389.547 206.829 388.939 207.161C388.312 207.494 387.649 207.752 386.949 207.937C386.561 208.029 386.156 208.103 385.769 208.158C386.543 209.21 387.778 210.354 387.041 211.794C386.009 213.824 382.82 212.772 381.825 212.329L382.488 210.816C382.488 210.816 384.295 212.145 385.493 211.259C386.691 210.447 385.474 209.45 384.589 208.25Z" fill="black"/>
<path fill-rule="evenodd" clip-rule="evenodd" d="M0.00390625 90.3242H40.5873V163.201H0.00390625V90.3242Z" fill="#FDDB00"/>
<path fill-rule="evenodd" clip-rule="evenodd" d="M0.00390625 47.0293H40.5873V93.5762H0.00390625V47.0293Z" fill="#01D101"/>
<path fill-rule="evenodd" clip-rule="evenodd" d="M88.2158 47.0234L133.392 116.657H88.2158V47.0234Z" fill="#FDDB00"/>
</svg>
