<svg width="122" height="56" viewBox="0 0 122 56" fill="none" xmlns="http://www.w3.org/2000/svg">
<path d="M72.6276 1.51102C71.7923 2.17048 71.7088 2.64153 71.7088 6.36281C71.7088 9.42462 71.8758 10.6964 72.3353 11.1204C72.8365 11.5914 72.4606 12.7691 69.6205 19.1753L66.2792 26.665H64.4832C62.8961 26.665 62.4784 26.4294 60.5154 24.1684C58.3853 21.7661 58.3436 21.6248 58.3436 18.9869C58.3436 14.7475 58.0512 14.4177 54.4593 14.4177C52.6216 14.4177 51.2016 14.6532 50.9092 14.983C50.6168 15.3127 50.408 16.8672 50.408 18.6572L50.3662 21.719L48.5285 23.2263C46.9832 24.5452 46.3149 24.7808 44.3937 24.7808C41.8459 24.7808 41.6371 25.0634 41.6371 28.3136C41.6371 30.6689 42.3053 31.3754 44.5607 31.3754C46.8579 31.3754 47.4844 30.6689 47.4844 28.1252C47.4844 26.0055 47.6097 25.77 49.1968 24.4981C50.7839 23.2734 51.2016 23.1792 53.9164 23.3205C56.8818 23.4618 56.8818 23.4618 59.0954 25.8642C61.2672 28.2665 61.2672 28.3136 61.2672 31.2341C61.2672 35.4264 62.0608 36.2743 65.7362 35.9917C67.7827 35.8504 68.6181 35.5678 69.0357 34.9083C69.7875 33.7307 69.7875 29.0202 69.0357 27.8426C68.4928 27.0418 68.7851 26.1939 71.7088 19.5521L75.0083 12.1567L77.5978 11.9683C80.9809 11.6856 81.315 11.1675 81.315 6.12728C81.315 1.22839 80.8973 0.757339 76.5119 0.757339C74.5071 0.757339 73.2541 0.992863 72.6276 1.51102Z" fill="white"/>
<path d="M54.6681 1.79276C53.9163 2.64064 53.9998 8.52874 54.8351 9.42373C55.6287 10.3658 60.8495 10.46 61.6012 9.61215C61.8936 9.28241 62.1024 7.68085 62.1024 5.70245C62.1024 3.72405 61.8936 2.12249 61.6012 1.79276C60.933 1.03908 55.3363 1.03908 54.6681 1.79276Z" fill="white"/>
<path d="M48.5705 7.02222C48.0275 7.44617 47.8605 8.10563 47.9858 9.47167C48.1111 11.3088 48.1528 11.3559 49.9488 11.4972C51.9536 11.6856 52.4965 11.2145 52.4965 9.14194C52.4965 6.7867 50.2829 5.60908 48.5705 7.02222Z" fill="white"/>
<path d="M42.5978 11.921C42.2636 12.0623 42.0548 13.0986 42.0548 14.653C42.0548 17.3851 42.3472 17.7148 44.7278 17.7148C46.5238 17.7148 47.0668 16.9612 47.0668 14.5588C47.0668 13.0515 46.8579 12.4391 46.2732 12.0623C45.4379 11.5912 43.5166 11.497 42.5978 11.921Z" fill="white"/>
<path d="M61.9354 12.3439C61.1419 13.2389 61.0166 17.7138 61.7683 18.5617C62.0607 18.8914 63.2719 19.127 64.4414 19.127C67.2397 19.127 67.9498 18.3733 67.9498 15.3586C67.9498 13.8983 67.6992 12.8149 67.2815 12.3439C66.4044 11.3547 62.8125 11.3547 61.9354 12.3439Z" fill="white"/>
<path d="M75.6349 16.9125C75.5096 17.2893 75.4679 18.4198 75.5514 19.409L75.6767 21.2461H77.765H79.8533V18.8909V16.5356L77.8485 16.3943C76.4285 16.3001 75.802 16.4414 75.6349 16.9125Z" fill="white"/>
<path d="M51.2852 29.6797C50.9929 30.0565 50.8258 31.4226 50.9093 32.8828L51.0346 35.3794L53.2482 35.5207C54.543 35.6149 55.7542 35.4265 56.0883 35.0967C56.7984 34.4373 56.8819 30.3863 56.1719 29.5855C55.4618 28.7847 51.8699 28.8789 51.2852 29.6797Z" fill="white"/>
<path d="M3.37934 40.5137C1.91752 41.2202 0.706299 42.916 0.706299 44.1878C0.706299 46.1662 1.66692 47.391 4.08936 48.3802C6.80417 49.5107 7.51419 50.2173 7.1383 51.3478C6.80417 52.2899 4.92469 52.337 4.63232 51.3949C4.46526 50.9238 3.797 50.6883 2.50225 50.6883C0.956896 50.6883 0.664533 50.8296 0.873364 51.442C0.998662 51.8659 1.12396 52.3841 1.12396 52.6196C1.12396 53.5617 3.88053 54.9277 5.80178 54.9277C9.14308 54.9277 11.4402 51.7717 10.229 48.8983C9.81134 48.0033 8.89248 47.2968 6.97123 46.4018C4.13113 45.1299 3.50464 43.9994 5.00822 42.9631C5.63471 42.5392 5.92708 42.6334 6.55357 43.4813C7.47243 44.8002 10.3125 45.0357 10.3125 43.811C10.3125 42.445 9.43544 41.1731 8.01539 40.5137C6.26121 39.7129 5.04999 39.7129 3.37934 40.5137Z" fill="white"/>
<path d="M17.9557 40.8434C15.5751 42.1623 14.4891 44.235 14.4891 47.4381C14.4891 51.9601 17.0369 54.9277 20.8794 54.9277C24.2207 54.9277 26.5596 52.9493 27.3949 49.4165C28.272 45.7423 26.8937 42.2566 23.9283 40.7492C21.7147 39.6187 20.1276 39.6187 17.9557 40.8434ZM23.3436 44.5647C24.4713 45.8365 24.5966 46.2605 24.3877 48.0033C24.0954 50.2644 22.9259 51.6304 21.1717 51.6304C19.4176 51.6304 18.7075 51.2065 17.9975 49.652C17.1204 47.7678 17.5381 45.3655 18.9581 44.0936C20.4617 42.7747 21.84 42.916 23.3436 44.5647Z" fill="white"/>
<path d="M54.8352 40.3253C52.0369 41.3145 50.2409 44.4705 50.4915 48.0975C50.8257 52.337 53.3316 54.9277 57.2159 54.9277C59.2624 54.9277 61.2254 53.703 62.6873 51.4891C63.982 49.5578 63.8985 45.3184 62.562 43.1986C60.8913 40.5608 57.7171 39.3832 54.8352 40.3253ZM58.4689 43.7168C59.8889 44.5647 60.3901 45.5539 60.4319 47.5323C60.4319 51.0651 56.9235 52.9493 54.7099 50.5941C53.0393 48.8041 53.5405 44.5176 55.5452 43.6226C56.7982 43.0573 57.4247 43.0573 58.4689 43.7168Z" fill="white"/>
<path d="M69.7458 40.5128C68.1587 41.3136 67.5322 42.5383 67.5322 44.7052C67.5322 46.7307 68.4093 47.6257 71.333 48.7091C73.2542 49.4156 73.5883 49.6983 73.5883 50.6875C73.5883 51.6296 73.3377 51.9122 72.4189 52.0064C71.6671 52.1006 71.2077 51.9122 71.0406 51.4411C70.8735 50.923 70.247 50.6875 69.1611 50.6875C67.8246 50.6875 67.5322 50.8759 67.5322 51.5825C67.5322 52.1006 68.117 53.0427 68.8687 53.7493C70.08 54.8798 70.4559 55.0211 72.7112 54.8327C74.7578 54.6443 75.3425 54.4087 76.1778 53.3253C78.1826 50.6404 77.0967 47.6728 73.5883 46.448C72.6695 46.1183 71.6671 45.6473 71.4165 45.3646C70.6647 44.7523 70.7482 43.292 71.5 42.9623C72.3771 42.5854 73.3795 43.1036 73.3795 43.9044C73.3795 44.3754 73.9225 44.5638 75.259 44.5638C76.3031 44.5638 77.1385 44.4696 77.1385 44.3754C77.1385 43.4804 76.0943 41.3607 75.4678 40.8897C74.1313 39.9476 71.2494 39.7592 69.7458 40.5128Z" fill="white"/>
<path d="M31.6133 47.5794V54.9277H33.2839H34.9546V51.018L34.9963 47.1554L36.4164 50.9238C37.6694 54.3154 37.92 54.6922 39.0477 54.8335C40.2171 54.9748 40.3424 54.8335 41.6789 51.0651L43.099 47.1554L43.2243 51.018L43.3496 54.9277H44.9785H46.6491V47.6265V40.3253H44.6861H42.6813L41.0107 45.0357C40.0918 47.6265 39.2565 49.7462 39.0894 49.7462C38.9641 49.7462 38.087 47.6736 37.1682 45.1299L35.4558 40.5608L33.5345 40.4195L31.6133 40.2781V47.5794Z" fill="white"/>
<path d="M81.7328 47.6731V55.0215L85.45 54.8331C89.5848 54.6918 90.7543 54.0794 92.5085 51.1589C94.388 48.05 93.302 43.3866 90.2531 41.4082C88.9166 40.5603 87.956 40.3248 85.1994 40.3248H81.7328V47.6731ZM87.2459 43.1511C89.2089 43.8105 90.086 45.1766 90.086 47.7673C90.086 50.4994 88.7077 52.101 86.3271 52.101H84.6564V47.7202C84.6564 42.3032 84.6147 42.3503 87.2459 43.1511Z" fill="white"/>
<path d="M97.1863 47.6265V54.9277H101.154H105.122V53.5146C105.122 52.1014 105.08 52.1014 102.825 52.1014H100.528V50.4528V48.8041H102.616C104.662 48.8041 104.704 48.757 104.704 47.391C104.704 46.0249 104.662 45.9778 102.616 45.9778H100.528V44.3292V42.6805H102.825C104.997 42.6805 105.122 42.6334 105.122 41.5029C105.122 40.3253 105.122 40.3253 101.154 40.3253H97.1863V47.6265Z" fill="white"/>
<path d="M108.881 40.6548C108.881 40.8903 109.841 44.1876 111.053 48.0031L113.224 54.9746L115.271 54.8333L117.318 54.692L119.573 47.485L121.828 40.2779L120.074 40.4192L118.32 40.5605L116.775 45.9776L115.271 51.3475L113.642 45.8363L112.055 40.325H110.468C109.591 40.325 108.881 40.4663 108.881 40.6548Z" fill="white"/>
</svg>
