<svg width="462" height="207" viewBox="0 0 462 207" fill="none" xmlns="http://www.w3.org/2000/svg">
<path d="M274.334 2.87497C271.148 5.39062 270.829 7.18752 270.829 21.383C270.829 33.0628 271.466 37.9144 273.219 39.5316C275.131 41.3285 273.697 45.8207 262.864 70.2585L250.119 98.8291H243.268C237.214 98.8291 235.621 97.9307 228.134 89.3056C220.009 80.1414 219.85 79.6023 219.85 69.5397C219.85 53.3677 218.734 52.1099 205.034 52.1099C198.024 52.1099 192.607 53.0083 191.492 54.2661C190.377 55.524 189.58 61.4537 189.58 68.2819L189.421 79.9617L182.411 85.7118C176.517 90.7431 173.968 91.6415 166.64 91.6415C156.922 91.6415 156.125 92.7197 156.125 105.118C156.125 114.103 158.674 116.798 167.277 116.798C176.039 116.798 178.429 114.103 178.429 104.399C178.429 96.3134 178.907 95.415 184.96 90.5634C191.014 85.8915 192.607 85.5321 202.963 86.0711C214.274 86.6102 214.274 86.6102 222.717 95.7744C231.001 104.939 231.001 105.118 231.001 116.259C231.001 132.251 234.028 135.486 248.048 134.408C255.854 133.869 259.04 132.79 260.633 130.275C263.501 125.783 263.501 107.814 260.633 103.321C258.562 100.267 259.677 97.0322 270.829 71.696L283.415 43.4848L293.292 42.766C306.196 41.6879 307.471 39.7113 307.471 20.4845C307.471 1.79683 305.878 -6.10352e-05 289.15 -6.10352e-05C281.503 -6.10352e-05 276.724 0.898376 274.334 2.87497Z" fill="white"/>
<path d="M205.829 3.94857C202.961 7.18298 203.28 29.6442 206.466 33.0583C209.493 36.652 229.407 37.0114 232.275 33.777C233.39 32.5192 234.186 26.4097 234.186 18.8628C234.186 11.3158 233.39 5.2064 232.275 3.94857C229.726 1.07354 208.378 1.07354 205.829 3.94857Z" fill="white"/>
<path d="M182.572 23.8979C180.501 25.5151 179.864 28.0308 180.342 33.2418C180.82 40.2496 180.979 40.4293 187.83 40.9684C195.477 41.6872 197.548 39.8903 197.548 31.9839C197.548 22.9995 189.104 18.5072 182.572 23.8979Z" fill="white"/>
<path d="M159.79 42.5857C158.515 43.1248 157.719 47.0779 157.719 53.0077C157.719 63.4297 158.834 64.6875 167.915 64.6875C174.765 64.6875 176.836 61.8125 176.836 52.6483C176.836 46.8982 176.04 44.5623 173.809 43.1248C170.623 41.3279 163.295 40.9685 159.79 42.5857Z" fill="white"/>
<path d="M233.549 44.197C230.522 47.6111 230.044 64.6816 232.912 67.916C234.027 69.1738 238.647 70.0723 243.107 70.0723C253.781 70.0723 256.49 67.1972 256.49 55.6971C256.49 50.1267 255.534 45.9939 253.941 44.197C250.595 40.4235 236.894 40.4235 233.549 44.197Z" fill="white"/>
<path d="M285.805 61.6268C285.327 63.0643 285.167 67.3768 285.486 71.1503L285.964 78.1582H293.93H301.895V69.1737V60.1893L294.248 59.6502C288.832 59.2908 286.442 59.8299 285.805 61.6268Z" fill="white"/>
<path d="M192.926 110.329C191.811 111.767 191.174 116.978 191.492 122.548L191.97 132.072L200.414 132.611C205.352 132.97 209.972 132.251 211.247 130.993C213.955 128.478 214.274 113.024 211.565 109.97C208.857 106.915 195.156 107.274 192.926 110.329Z" fill="white"/>
<path d="M10.1959 151.658C4.62003 154.353 0 160.822 0 165.673C0 173.22 3.66416 177.892 12.9042 181.666C23.2595 185.978 25.9677 188.674 24.5339 192.986C23.2595 196.58 16.0904 196.76 14.9753 193.166C14.338 191.369 11.789 190.471 6.85039 190.471C0.955868 190.471 -0.159311 191.01 0.637245 193.346C1.11518 194.963 1.59311 196.939 1.59311 197.838C1.59311 201.432 12.1077 206.643 19.436 206.643C32.1809 206.643 40.943 194.603 36.323 183.642C34.7299 180.228 31.225 177.533 23.8967 174.119C13.0635 169.267 10.6739 164.955 16.4091 161.001C18.7987 159.384 19.9139 159.744 22.3036 162.978C25.8084 168.009 36.6416 168.908 36.6416 164.236C36.6416 159.025 33.2961 154.173 27.8795 151.658C21.1884 148.603 16.5684 148.603 10.1959 151.658Z" fill="white"/>
<path d="M65.7971 152.915C56.7163 157.947 52.5742 165.853 52.5742 178.072C52.5742 195.322 62.2922 206.643 76.9488 206.643C89.6938 206.643 98.6152 199.096 101.801 185.619C105.147 171.603 99.8897 158.306 88.5786 152.556C80.1351 148.244 74.0812 148.244 65.7971 152.915ZM86.3482 167.111C90.6496 171.963 91.1276 173.58 90.331 180.228C89.2158 188.853 84.7551 194.064 78.064 194.064C71.373 194.064 68.6647 192.447 65.9564 186.517C62.6108 179.33 64.2039 170.166 69.6205 165.314C75.3557 160.283 80.613 160.822 86.3482 167.111Z" fill="white"/>
<path d="M206.467 150.939C195.793 154.712 188.942 166.752 189.898 180.588C191.173 196.76 200.731 206.643 215.547 206.643C223.354 206.643 230.841 201.971 236.417 193.525C241.356 186.158 241.037 169.986 235.939 161.9C229.567 151.837 217.459 147.345 206.467 150.939ZM220.327 163.877C225.743 167.111 227.655 170.884 227.814 178.431C227.814 191.908 214.432 199.096 205.989 190.111C199.616 183.283 201.528 166.931 209.175 163.517C213.954 161.361 216.344 161.361 220.327 163.877Z" fill="white"/>
<path d="M263.343 151.654C257.289 154.708 254.899 159.38 254.899 167.646C254.899 175.373 258.245 178.787 269.397 182.92C276.725 185.615 278 186.693 278 190.467C278 194.06 277.044 195.138 273.539 195.498C270.671 195.857 268.919 195.138 268.282 193.342C267.644 191.365 265.255 190.467 261.113 190.467C256.015 190.467 254.899 191.185 254.899 193.881C254.899 195.857 257.13 199.451 259.997 202.146C264.617 206.459 266.051 206.998 274.654 206.279C282.46 205.56 284.691 204.662 287.877 200.529C295.524 190.287 291.382 178.966 278 174.294C274.495 173.037 270.671 171.24 269.715 170.162C266.848 167.826 267.166 162.255 270.034 160.997C273.38 159.56 277.203 161.537 277.203 164.591C277.203 166.388 279.274 167.107 284.372 167.107C288.355 167.107 291.541 166.748 291.541 166.388C291.541 162.974 287.558 154.888 285.169 153.091C280.071 149.497 269.078 148.779 263.343 151.654Z" fill="white"/>
<path d="M117.891 178.611V206.643H124.263H130.636V191.728L130.795 176.994L136.211 191.369C140.991 204.307 141.947 205.744 146.248 206.283C150.709 206.822 151.187 206.283 156.285 191.908L161.701 176.994L162.179 191.728L162.657 206.643H168.87H175.243V178.791V150.939H167.755H160.108L153.736 168.908C150.231 178.791 147.045 186.877 146.407 186.877C145.929 186.877 142.584 178.97 139.079 169.267L132.547 151.837L125.219 151.298L117.891 150.759V178.611Z" fill="white"/>
<path d="M309.063 178.968V207L323.242 206.281C339.014 205.742 343.475 203.406 350.166 192.265C357.335 180.406 353.193 162.617 341.563 155.07C336.465 151.835 332.801 150.937 322.286 150.937H309.063V178.968ZM330.093 161.718C337.58 164.234 340.926 169.445 340.926 179.328C340.926 189.75 335.668 195.859 326.588 195.859H320.215V179.148C320.215 158.484 320.056 158.664 330.093 161.718Z" fill="white"/>
<path d="M368.007 178.791V206.643H383.141H398.276V201.252C398.276 195.861 398.117 195.861 389.514 195.861H380.752V189.572V183.283H388.717C396.524 183.283 396.683 183.103 396.683 177.892C396.683 172.681 396.524 172.502 388.717 172.502H380.752V166.212V159.923H389.514C397.798 159.923 398.276 159.744 398.276 155.431C398.276 150.939 398.276 150.939 383.141 150.939H368.007V178.791Z" fill="white"/>
<path d="M412.613 152.195C412.613 153.093 416.277 165.671 420.897 180.226L429.182 206.82L436.988 206.281L444.794 205.742L453.397 178.25L462 150.757L455.309 151.296L448.618 151.835L442.723 172.5L436.988 192.984L430.775 171.961L424.721 150.937H418.667C415.322 150.937 412.613 151.476 412.613 152.195Z" fill="white"/>
</svg>
