<svg width="462" height="208" viewBox="0 0 462 208" fill="none" xmlns="http://www.w3.org/2000/svg">
<path d="M274.334 3.01559C271.148 5.53125 270.829 7.32814 270.829 21.5236C270.829 33.2034 271.466 38.055 273.219 39.6722C275.131 41.4691 273.697 45.9613 262.864 70.3991L250.119 98.9697H243.268C237.214 98.9697 235.621 98.0713 228.134 89.4462C220.009 80.282 219.85 79.743 219.85 69.6804C219.85 53.5083 218.734 52.2505 205.034 52.2505C198.024 52.2505 192.607 53.1489 191.492 54.4068C190.377 55.6646 189.58 61.5943 189.58 68.4225L189.421 80.1023L182.411 85.8524C176.517 90.8837 173.968 91.7822 166.64 91.7822C156.922 91.7822 156.125 92.8603 156.125 105.259C156.125 114.243 158.674 116.939 167.277 116.939C176.039 116.939 178.429 114.243 178.429 104.54C178.429 96.4541 178.907 95.5556 184.96 90.704C191.014 86.0321 192.607 85.6727 202.963 86.2118C214.274 86.7508 214.274 86.7508 222.717 95.915C231.001 105.079 231.001 105.259 231.001 116.4C231.001 132.392 234.028 135.626 248.048 134.548C255.854 134.009 259.04 132.931 260.633 130.415C263.501 125.923 263.501 107.954 260.633 103.462C258.562 100.407 259.677 97.1728 270.829 71.8366L283.415 43.6254L293.292 42.9066C306.196 41.8285 307.471 39.8519 307.471 20.6252C307.471 1.93745 305.878 0.140564 289.15 0.140564C281.503 0.140564 276.724 1.039 274.334 3.01559Z" fill="black"/>
<path d="M205.829 4.0892C202.961 7.32361 203.28 29.7848 206.466 33.1989C209.493 36.7927 229.407 37.152 232.275 33.9176C233.39 32.6598 234.186 26.5504 234.186 19.0034C234.186 11.4565 233.39 5.34702 232.275 4.0892C229.726 1.21417 208.378 1.21417 205.829 4.0892Z" fill="black"/>
<path d="M182.572 24.0385C180.501 25.6557 179.864 28.1714 180.342 33.3824C180.82 40.3903 180.979 40.57 187.83 41.109C195.477 41.8278 197.548 40.0309 197.548 32.1246C197.548 23.1401 189.104 18.6479 182.572 24.0385Z" fill="black"/>
<path d="M159.79 42.7263C158.515 43.2654 157.719 47.2186 157.719 53.1483C157.719 63.5703 158.834 64.8281 167.915 64.8281C174.765 64.8281 176.836 61.9531 176.836 52.7889C176.836 47.0389 176.04 44.7029 173.809 43.2654C170.623 41.4685 163.295 41.1091 159.79 42.7263Z" fill="black"/>
<path d="M233.549 44.3376C230.522 47.7517 230.044 64.8222 232.912 68.0566C234.027 69.3144 238.647 70.2129 243.107 70.2129C253.781 70.2129 256.49 67.3379 256.49 55.8377C256.49 50.2674 255.534 46.1345 253.941 44.3376C250.595 40.5641 236.894 40.5641 233.549 44.3376Z" fill="black"/>
<path d="M285.805 61.7674C285.327 63.2049 285.167 67.5175 285.486 71.2909L285.964 78.2988H293.93H301.895V69.3144V60.3299L294.248 59.7908C288.832 59.4314 286.442 59.9705 285.805 61.7674Z" fill="black"/>
<path d="M192.926 110.47C191.811 111.907 191.174 117.118 191.492 122.689L191.97 132.212L200.414 132.751C205.352 133.111 209.972 132.392 211.247 131.134C213.955 128.618 214.274 113.165 211.565 110.11C208.857 107.056 195.156 107.415 192.926 110.47Z" fill="black"/>
<path d="M10.1959 151.798C4.62003 154.494 0 160.962 0 165.814C0 173.361 3.66416 178.033 12.9042 181.806C23.2595 186.119 25.9677 188.814 24.5339 193.127C23.2595 196.721 16.0904 196.9 14.9753 193.306C14.338 191.51 11.789 190.611 6.85039 190.611C0.955868 190.611 -0.159311 191.15 0.637245 193.486C1.11518 195.103 1.59311 197.08 1.59311 197.978C1.59311 201.572 12.1077 206.783 19.436 206.783C32.1809 206.783 40.943 194.744 36.323 183.783C34.7299 180.369 31.225 177.674 23.8967 174.259C13.0635 169.408 10.6739 165.095 16.4091 161.142C18.7987 159.525 19.9139 159.884 22.3036 163.119C25.8084 168.15 36.6416 169.048 36.6416 164.376C36.6416 159.166 33.2961 154.314 27.8795 151.798C21.1884 148.744 16.5684 148.744 10.1959 151.798Z" fill="black"/>
<path d="M65.7971 153.056C56.7163 158.087 52.5742 165.994 52.5742 178.213C52.5742 195.463 62.2922 206.783 76.9488 206.783C89.6938 206.783 98.6152 199.236 101.801 185.76C105.147 171.744 99.8897 158.447 88.5786 152.697C80.1351 148.384 74.0812 148.384 65.7971 153.056ZM86.3482 167.252C90.6496 172.103 91.1276 173.72 90.331 180.369C89.2158 188.994 84.7551 194.205 78.064 194.205C71.373 194.205 68.6647 192.588 65.9564 186.658C62.6108 179.47 64.2039 170.306 69.6205 165.455C75.3557 160.423 80.613 160.962 86.3482 167.252Z" fill="black"/>
<path d="M206.467 151.079C195.793 154.853 188.942 166.892 189.898 180.728C191.173 196.9 200.731 206.783 215.547 206.783C223.354 206.783 230.841 202.111 236.417 193.666C241.356 186.299 241.037 170.127 235.939 162.041C229.567 151.978 217.459 147.486 206.467 151.079ZM220.327 164.017C225.743 167.252 227.655 171.025 227.814 178.572C227.814 192.049 214.432 199.236 205.989 190.252C199.616 183.424 201.528 167.072 209.175 163.658C213.954 161.501 216.344 161.501 220.327 164.017Z" fill="black"/>
<path d="M263.343 151.794C257.289 154.849 254.899 159.521 254.899 167.787C254.899 175.513 258.245 178.927 269.397 183.06C276.725 185.756 278 186.834 278 190.607C278 194.201 277.044 195.279 273.539 195.638C270.671 195.998 268.919 195.279 268.282 193.482C267.644 191.506 265.255 190.607 261.113 190.607C256.015 190.607 254.899 191.326 254.899 194.021C254.899 195.998 257.13 199.592 259.997 202.287C264.617 206.599 266.051 207.139 274.654 206.42C282.46 205.701 284.691 204.803 287.877 200.67C295.524 190.427 291.382 179.107 278 174.435C274.495 173.177 270.671 171.38 269.715 170.302C266.848 167.966 267.166 162.396 270.034 161.138C273.38 159.701 277.203 161.677 277.203 164.732C277.203 166.529 279.274 167.248 284.372 167.248C288.355 167.248 291.541 166.888 291.541 166.529C291.541 163.115 287.558 155.029 285.169 153.232C280.071 149.638 269.078 148.919 263.343 151.794Z" fill="black"/>
<path d="M117.891 178.752V206.783H124.263H130.636V191.869L130.795 177.134L136.211 191.51C140.991 204.447 141.947 205.885 146.248 206.424C150.709 206.963 151.187 206.424 156.285 192.049L161.701 177.134L162.179 191.869L162.657 206.783H168.87H175.243V178.931V151.079H167.755H160.108L153.736 169.048C150.231 178.931 147.045 187.017 146.407 187.017C145.929 187.017 142.584 179.111 139.079 169.408L132.547 151.978L125.219 151.439L117.891 150.9V178.752Z" fill="black"/>
<path d="M309.063 179.109V207.141L323.242 206.422C339.014 205.883 343.475 203.547 350.166 192.406C357.335 180.547 353.193 162.757 341.563 155.21C336.465 151.976 332.801 151.078 322.286 151.078H309.063V179.109ZM330.093 161.859C337.58 164.375 340.926 169.586 340.926 179.468C340.926 189.89 335.668 196 326.588 196H320.215V179.289C320.215 158.624 320.056 158.804 330.093 161.859Z" fill="black"/>
<path d="M368.007 178.931V206.783H383.141H398.276V201.393C398.276 196.002 398.117 196.002 389.514 196.002H380.752V189.713V183.424H388.717C396.524 183.424 396.683 183.244 396.683 178.033C396.683 172.822 396.524 172.642 388.717 172.642H380.752V166.353V160.064H389.514C397.798 160.064 398.276 159.884 398.276 155.572C398.276 151.079 398.276 151.079 383.141 151.079H368.007V178.931Z" fill="black"/>
<path d="M412.613 152.335C412.613 153.234 416.277 165.812 420.897 180.367L429.182 206.961L436.988 206.422L444.794 205.883L453.397 178.39L462 150.898L455.309 151.437L448.618 151.976L442.723 172.64L436.988 193.125L430.775 172.101L424.721 151.078H418.667C415.322 151.078 412.613 151.617 412.613 152.335Z" fill="black"/>
</svg>
